<svg xmlns="http://www.w3.org/2000/svg" viewBox="0 0 117.99 143.99"><defs><style>.cls-1{fill:#fff;stroke:#212222;stroke-miterlimit:10;stroke-width:4px;}</style></defs><title>class</title><g id="Layer_2" data-name="Layer 2"><g id="Layer_1-2" data-name="Layer 1"><polygon class="cls-1" points="2 88.86 59 68.61 115.99 88.86 115.99 121.61 59 141.86 2 121.61 2 88.86"/><polyline class="cls-1" points="2 88.84 59 109.1 115.99 88.84"/><line class="cls-1" x1="59" y1="109.15" x2="59" y2="142"/><polygon class="cls-1" points="2 56.38 59 36.12 115.99 56.38 115.99 89.12 59 109.37 2 89.12 2 56.38"/><polyline class="cls-1" points="2 56.35 59 76.61 115.99 56.35"/><line class="cls-1" x1="59" y1="76.67" x2="59" y2="109.51"/><polygon class="cls-1" points="2 24.26 59 4.01 115.99 24.26 115.99 57.01 59 77.26 2 57.01 2 24.26"/><polyline class="cls-1" points="2 24.23 59 44.5 115.99 24.23"/><path class="cls-1" d="M47,16.1c0,2.19,5.37,4,12,4s12-1.78,12-4V6c0-2.19-5.37-4-12-4S47,3.78,47,6Z"/><path class="cls-1" d="M71,6c0,2.19-5.37,4-12,4S47,8.16,47,6"/><path class="cls-1" d="M47,32.15c0,2.19,5.37,4,12,4s12-1.78,12-4V22c0-2.19-5.37-4-12-4s-12,1.78-12,4Z"/><path class="cls-1" d="M71,22c0,2.19-5.37,4-12,4s-12-1.78-12-4"/><path class="cls-1" d="M73,24.13c0,2.19,5.37,4,12,4s12-1.78,12-4V14c0-2.19-5.37-4-12-4S73,11.8,73,14Z"/><path class="cls-1" d="M97,14c0,2.19-5.37,4-12,4s-12-1.78-12-4"/><path class="cls-1" d="M21,24.13c0,2.19,5.37,4,12,4s12-1.78,12-4V14c0-2.19-5.37-4-12-4S21,11.8,21,14Z"/><path class="cls-1" d="M45,14c0,2.19-5.37,4-12,4s-12-1.78-12-4"/><line class="cls-1" x1="59" y1="44.55" x2="59" y2="77.4"/></g></g></svg>