<svg xmlns="http://www.w3.org/2000/svg" viewBox="0 0 117.99 79.13"><defs><style>.cls-1{fill:#fff;}.cls-2,.cls-3,.cls-4,.cls-5,.cls-6,.cls-7,.cls-8{fill:none;stroke:#212222;stroke-miterlimit:10;stroke-width:4px;}.cls-3{stroke-dasharray:8.07 4.03;}.cls-4{stroke-dasharray:7.04 3.52;}.cls-5{stroke-dasharray:8.07 4.03;}.cls-6{stroke-dasharray:8.17 4.08;}.cls-7{stroke-dasharray:9.33 4.67;}.cls-8{stroke-dasharray:7.07 3.53;}</style></defs><title>dashed_resource</title><g id="Layer_2" data-name="Layer 2"><g id="Layer_1-2" data-name="Layer 1"><polygon class="cls-1" points="2 24.19 59 4 115.99 24.19 115.99 56.82 59 77.01 2 56.82 2 24.19"/><polyline class="cls-2" points="2 28.19 2 24.19 5.77 22.85"/><polyline class="cls-3" points="9.57 21.5 59 4 110.32 22.18"/><polyline class="cls-2" points="112.22 22.85 115.99 24.19 115.99 28.19"/><line class="cls-4" x1="115.99" y1="31.71" x2="115.99" y2="51.06"/><polyline class="cls-2" points="115.99 52.82 115.99 56.82 112.22 58.16"/><polyline class="cls-3" points="108.42 59.5 59 77.01 7.67 58.83"/><polyline class="cls-2" points="5.77 58.16 2 56.82 2 52.82"/><line class="cls-4" x1="2" y1="49.3" x2="2" y2="29.95"/><polyline class="cls-1" points="2 24.16 59 44.35 115.99 24.16"/><line class="cls-2" x1="2" y1="24.16" x2="5.77" y2="25.49"/><polyline class="cls-5" points="9.57 26.84 59 44.35 110.32 26.17"/><line class="cls-2" x1="112.22" y1="25.49" x2="115.99" y2="24.16"/><path class="cls-1" d="M47,16c0,2.18,5.37,4,12,4s12-1.77,12-4V6c0-2.18-5.37-4-12-4S47,3.77,47,6Z"/><path class="cls-6" d="M47,16c0,2.18,5.37,4,12,4s12-1.77,12-4V6c0-2.18-5.37-4-12-4S47,3.77,47,6Z"/><path class="cls-1" d="M71,6c0,2.18-5.37,4-12,4S47,8.14,47,6"/><path class="cls-2" d="M71,6c0,1-1.06,1.86-2.82,2.55"/><path class="cls-7" d="M63.65,9.6A34.1,34.1,0,0,1,59,9.91,31.11,31.11,0,0,1,52,9.18"/><path class="cls-2" d="M49.81,8.5C48.06,7.81,47,6.92,47,6"/><path class="cls-1" d="M47,32.05c0,2.18,5.37,4,12,4s12-1.77,12-4V22c0-2.18-5.37-4-12-4s-12,1.77-12,4Z"/><path class="cls-6" d="M47,32.05c0,2.18,5.37,4,12,4s12-1.77,12-4V22c0-2.18-5.37-4-12-4s-12,1.77-12,4Z"/><path class="cls-1" d="M71,22c0,2.18-5.37,4-12,4s-12-1.77-12-4"/><path class="cls-2" d="M71,22c0,1-1.06,1.86-2.82,2.55"/><path class="cls-7" d="M63.65,25.6a34.11,34.11,0,0,1-4.66.31A31.11,31.11,0,0,1,52,25.18"/><path class="cls-2" d="M49.81,24.5C48.06,23.81,47,22.93,47,22"/><path class="cls-1" d="M73,24.05c0,2.18,5.37,4,12,4s12-1.77,12-4V14c0-2.18-5.37-4-12-4s-12,1.77-12,4Z"/><path class="cls-6" d="M73,24.05c0,2.18,5.37,4,12,4s12-1.77,12-4V14c0-2.18-5.37-4-12-4s-12,1.77-12,4Z"/><path class="cls-1" d="M97,14c0,2.18-5.37,4-12,4s-12-1.77-12-4"/><path class="cls-2" d="M97,14c0,1-1.06,1.86-2.82,2.55"/><path class="cls-7" d="M89.65,17.6a34.1,34.1,0,0,1-4.66.31A31.11,31.11,0,0,1,78,17.18"/><path class="cls-2" d="M75.81,16.5C74.06,15.81,73,14.92,73,14"/><path class="cls-1" d="M21,24.05c0,2.18,5.37,4,12,4s12-1.77,12-4V14c0-2.18-5.37-4-12-4s-12,1.77-12,4Z"/><path class="cls-6" d="M21,24.05c0,2.18,5.37,4,12,4s12-1.77,12-4V14c0-2.18-5.37-4-12-4s-12,1.77-12,4Z"/><path class="cls-1" d="M45,14c0,2.18-5.37,4-12,4s-12-1.77-12-4"/><path class="cls-2" d="M45,14c0,1-1.06,1.86-2.82,2.55"/><path class="cls-7" d="M37.65,17.6a34.1,34.1,0,0,1-4.66.31A31.11,31.11,0,0,1,26,17.18"/><path class="cls-2" d="M23.81,16.5C22.06,15.81,21,14.92,21,14"/><line class="cls-1" x1="59" y1="44.41" x2="59" y2="77.14"/><line class="cls-2" x1="59" y1="44.41" x2="59" y2="48.41"/><line class="cls-8" x1="59" y1="51.94" x2="59" y2="71.38"/><line class="cls-2" x1="59" y1="73.14" x2="59" y2="77.14"/></g></g></svg>