<svg xmlns="http://www.w3.org/2000/svg" viewBox="0 0 164.66 107.33"><defs><style>.cls-1,.cls-2{fill:#fff;stroke:#231f20;stroke-linejoin:bevel;stroke-width:4px;}.cls-2{stroke-linecap:square;}</style></defs><title>log</title><g id="Layer_2" data-name="Layer 2"><g id="Layer_1-2" data-name="Layer 1"><polygon class="cls-1" points="82.33 105.33 2 105.33 7.24 20.05 62.83 20.05 82.33 28.78 82.33 105.33"/><polygon class="cls-1" points="82.33 98.63 9.69 98.63 14.93 13.35 82.33 28.78 82.33 98.63"/><path class="cls-1" d="M29.22,2S60.79,3.16,82.33,28.78V98.63s-15.72-16-57.77-14Z"/><polygon class="cls-1" points="82.33 105.33 162.66 105.33 157.42 20.05 101.83 20.05 82.33 28.78 82.33 105.33"/><polygon class="cls-1" points="82.33 98.63 154.97 98.63 149.73 13.35 82.33 28.78 82.33 98.63"/><path class="cls-1" d="M135.44,2S103.87,3.16,82.33,28.78V98.63s15.72-16,57.77-14Z"/><path class="cls-2" d="M36.6,17.13a77.63,77.63,0,0,1,13.23,3.06A73.58,73.58,0,0,1,73.16,32.78"/><path class="cls-2" d="M36.73,31.46A90.76,90.76,0,0,1,73,44.84"/><path class="cls-2" d="M36.73,45.4A111.23,111.23,0,0,1,72.55,56.78"/><path class="cls-2" d="M36,59.11c4.22.63,8.73,1.48,13.46,2.64A147.89,147.89,0,0,1,73,69.69"/><path class="cls-2" d="M34.81,72.33a116.23,116.23,0,0,1,37.75,10.1"/><path class="cls-2" d="M98,132"/><path class="cls-2" d="M128.06,17.13a77.63,77.63,0,0,0-13.23,3.06A73.58,73.58,0,0,0,91.5,32.78"/><path class="cls-2" d="M127.92,31.46A90.76,90.76,0,0,0,91.63,44.84"/><path class="cls-2" d="M127.92,45.4A111.23,111.23,0,0,0,92.11,56.78"/><path class="cls-2" d="M128.65,59.11c-4.22.63-8.73,1.48-13.46,2.64a147.89,147.89,0,0,0-23.56,7.93"/><path class="cls-2" d="M129.85,72.33A116.23,116.23,0,0,0,92.1,82.43"/></g></g></svg>