<svg id="Layer_1" data-name="Layer 1"
  xmlns="http://www.w3.org/2000/svg" viewBox="0 0 1920 1080">
  <defs>
    <style>.cls-1,.cls-16,.cls-18{fill:none;}.cls-1,.cls-16{stroke:#3880ff;}.cls-1,.cls-16,.cls-17,.cls-18,.cls-2{stroke-miterlimit:10;stroke-width:8px;}.cls-17,.cls-2{fill:#fff;}.cls-2{stroke:#212222;}.cls-10,.cls-3{font-size:48px;fill:#222;}.cls-3{font-family:Calibre-Semibold, Calibre;font-weight:700;}.cls-4{letter-spacing:-0.01em;}.cls-5{letter-spacing:-0.01em;}.cls-6{letter-spacing:0em;}.cls-7{letter-spacing:0em;}.cls-8{letter-spacing:0em;}.cls-9{letter-spacing:0em;}.cls-10{font-family:Calibre-Regular, Calibre;}.cls-11{letter-spacing:-0.01em;}.cls-12{letter-spacing:-0.01em;}.cls-13{letter-spacing:0em;}.cls-14{letter-spacing:-0.01em;}.cls-15{letter-spacing:0em;}.cls-16{stroke-linecap:square;}.cls-17,.cls-18{stroke:#222;}</style>
  </defs>
  <title>node-many-classes</title>
  <line class="cls-1" x1="801.27" y1="540" x2="1121.9" y2="540"/>
  <line class="cls-1" x1="1121.9" y1="215.45" x2="1121.9" y2="857.85"/>
  <polygon class="cls-2" points="1306.91 246.87 1386.91 218.44 1466.91 246.87 1466.91 292.83 1386.91 321.26 1306.91 292.83 1306.91 246.87"/>
  <polyline class="cls-2" points="1306.91 246.83 1386.91 275.27 1466.91 246.83"/>
  <line class="cls-2" x1="1386.91" y1="275.35" x2="1386.91" y2="321.45"/>
  <polygon class="cls-2" points="1306.91 201.27 1386.91 172.84 1466.91 201.27 1466.91 247.23 1386.91 275.66 1306.91 247.23 1306.91 201.27"/>
  <polyline class="cls-2" points="1306.91 201.23 1386.91 229.67 1466.91 201.23"/>
  <line class="cls-2" x1="1386.91" y1="229.75" x2="1386.91" y2="275.85"/>
  <polygon class="cls-2" points="1306.91 156.19 1386.91 127.76 1466.91 156.19 1466.91 202.16 1386.91 230.59 1306.91 202.16 1306.91 156.19"/>
  <polyline class="cls-2" points="1306.91 156.16 1386.91 184.6 1466.91 156.16"/>
  <path class="cls-2" d="M1370.07,144.73c0,3.08,7.54,5.57,16.84,5.57s16.84-2.49,16.84-5.57V130.51c0-3.08-7.54-5.57-16.84-5.57s-16.84,2.49-16.84,5.57Z"/>
  <path class="cls-2" d="M1403.76,130.51c0,3.08-7.54,5.57-16.84,5.57s-16.84-2.49-16.84-5.57"/>
  <path class="cls-2" d="M1370.07,167.27c0,3.08,7.54,5.57,16.84,5.57s16.84-2.49,16.84-5.57V153.05c0-3.08-7.54-5.57-16.84-5.57s-16.84,2.49-16.84,5.57Z"/>
  <path class="cls-2" d="M1403.76,153.05c0,3.08-7.54,5.57-16.84,5.57s-16.84-2.49-16.84-5.57"/>
  <path class="cls-2" d="M1406.57,156c0,3.08,7.54,5.57,16.84,5.57s16.84-2.49,16.84-5.57V141.78c0-3.08-7.54-5.57-16.84-5.57s-16.84,2.49-16.84,5.57Z"/>
  <path class="cls-2" d="M1440.25,141.78c0,3.08-7.54,5.57-16.84,5.57s-16.84-2.49-16.84-5.57"/>
  <path class="cls-2" d="M1333.58,156c0,3.08,7.54,5.57,16.84,5.57s16.84-2.49,16.84-5.57V141.78c0-3.08-7.54-5.57-16.84-5.57s-16.84,2.49-16.84,5.57Z"/>
  <path class="cls-2" d="M1367.26,141.78c0,3.08-7.54,5.57-16.84,5.57s-16.84-2.49-16.84-5.57"/>
  <line class="cls-2" x1="1386.91" y1="184.67" x2="1386.91" y2="230.78"/>
  <polygon class="cls-2" points="1306.91 458.07 1386.91 429.64 1466.91 458.07 1466.91 504.03 1386.91 532.46 1306.91 504.03 1306.91 458.07"/>
  <polyline class="cls-2" points="1306.91 458.03 1386.91 486.47 1466.91 458.03"/>
  <line class="cls-2" x1="1386.91" y1="486.55" x2="1386.91" y2="532.65"/>
  <polygon class="cls-2" points="1306.91 412.47 1386.91 384.04 1466.91 412.47 1466.91 458.43 1386.91 486.86 1306.91 458.43 1306.91 412.47"/>
  <polyline class="cls-2" points="1306.91 412.43 1386.91 440.87 1466.91 412.43"/>
  <line class="cls-2" x1="1386.91" y1="440.95" x2="1386.91" y2="487.05"/>
  <polygon class="cls-2" points="1306.91 367.39 1386.91 338.96 1466.91 367.39 1466.91 413.36 1386.91 441.79 1306.91 413.36 1306.91 367.39"/>
  <polyline class="cls-2" points="1306.91 367.36 1386.91 395.8 1466.91 367.36"/>
  <path class="cls-2" d="M1370.07,355.93c0,3.08,7.54,5.57,16.84,5.57s16.84-2.49,16.84-5.57V341.71c0-3.08-7.54-5.57-16.84-5.57s-16.84,2.49-16.84,5.57Z"/>
  <path class="cls-2" d="M1403.76,341.71c0,3.08-7.54,5.57-16.84,5.57s-16.84-2.49-16.84-5.57"/>
  <path class="cls-2" d="M1370.07,378.47c0,3.08,7.54,5.57,16.84,5.57s16.84-2.49,16.84-5.57V364.25c0-3.08-7.54-5.57-16.84-5.57s-16.84,2.49-16.84,5.57Z"/>
  <path class="cls-2" d="M1403.76,364.25c0,3.08-7.54,5.57-16.84,5.57s-16.84-2.49-16.84-5.57"/>
  <path class="cls-2" d="M1406.57,367.2c0,3.08,7.54,5.57,16.84,5.57s16.84-2.49,16.84-5.57V353c0-3.08-7.54-5.57-16.84-5.57s-16.84,2.49-16.84,5.57Z"/>
  <path class="cls-2" d="M1440.25,353c0,3.08-7.54,5.57-16.84,5.57s-16.84-2.49-16.84-5.57"/>
  <path class="cls-2" d="M1333.58,367.2c0,3.08,7.54,5.57,16.84,5.57s16.84-2.49,16.84-5.57V353c0-3.08-7.54-5.57-16.84-5.57s-16.84,2.49-16.84,5.57Z"/>
  <path class="cls-2" d="M1367.26,353c0,3.08-7.54,5.57-16.84,5.57s-16.84-2.49-16.84-5.57"/>
  <line class="cls-2" x1="1386.91" y1="395.87" x2="1386.91" y2="441.98"/>
  <polygon class="cls-2" points="1306.91 669.27 1386.91 640.84 1466.91 669.27 1466.91 715.23 1386.91 743.66 1306.91 715.23 1306.91 669.27"/>
  <polyline class="cls-2" points="1306.91 669.23 1386.91 697.67 1466.91 669.23"/>
  <line class="cls-2" x1="1386.91" y1="697.75" x2="1386.91" y2="743.85"/>
  <polygon class="cls-2" points="1306.91 623.67 1386.91 595.24 1466.91 623.67 1466.91 669.63 1386.91 698.06 1306.91 669.63 1306.91 623.67"/>
  <polyline class="cls-2" points="1306.91 623.63 1386.91 652.07 1466.91 623.63"/>
  <line class="cls-2" x1="1386.91" y1="652.15" x2="1386.91" y2="698.25"/>
  <polygon class="cls-2" points="1306.91 578.59 1386.91 550.16 1466.91 578.59 1466.91 624.55 1386.91 652.99 1306.91 624.55 1306.91 578.59"/>
  <polyline class="cls-2" points="1306.91 578.55 1386.91 607 1466.91 578.55"/>
  <path class="cls-2" d="M1370.07,567.13c0,3.08,7.54,5.57,16.84,5.57s16.84-2.49,16.84-5.57V552.91c0-3.08-7.54-5.57-16.84-5.57s-16.84,2.49-16.84,5.57Z"/>
  <path class="cls-2" d="M1403.76,552.91c0,3.08-7.54,5.57-16.84,5.57s-16.84-2.49-16.84-5.57"/>
  <path class="cls-2" d="M1370.07,589.67c0,3.08,7.54,5.57,16.84,5.57s16.84-2.49,16.84-5.57V575.45c0-3.08-7.54-5.57-16.84-5.57s-16.84,2.49-16.84,5.57Z"/>
  <path class="cls-2" d="M1403.76,575.45c0,3.08-7.54,5.57-16.84,5.57s-16.84-2.49-16.84-5.57"/>
  <path class="cls-2" d="M1406.57,578.4c0,3.08,7.54,5.57,16.84,5.57s16.84-2.49,16.84-5.57V564.18c0-3.08-7.54-5.57-16.84-5.57s-16.84,2.49-16.84,5.57Z"/>
  <path class="cls-2" d="M1440.25,564.18c0,3.08-7.54,5.57-16.84,5.57s-16.84-2.49-16.84-5.57"/>
  <path class="cls-2" d="M1333.58,578.4c0,3.08,7.54,5.57,16.84,5.57s16.84-2.49,16.84-5.57V564.18c0-3.08-7.54-5.57-16.84-5.57s-16.84,2.49-16.84,5.57Z"/>
  <path class="cls-2" d="M1367.26,564.18c0,3.08-7.54,5.57-16.84,5.57s-16.84-2.49-16.84-5.57"/>
  <line class="cls-2" x1="1386.91" y1="607.07" x2="1386.91" y2="653.18"/>
  <polygon class="cls-2" points="1306.91 880.47 1386.91 852.04 1466.91 880.47 1466.91 926.43 1386.91 954.86 1306.91 926.43 1306.91 880.47"/>
  <polyline class="cls-2" points="1306.91 880.43 1386.91 908.87 1466.91 880.43"/>
  <line class="cls-2" x1="1386.91" y1="908.95" x2="1386.91" y2="955.05"/>
  <polygon class="cls-2" points="1306.91 834.87 1386.91 806.44 1466.91 834.87 1466.91 880.83 1386.91 909.26 1306.91 880.83 1306.91 834.87"/>
  <polyline class="cls-2" points="1306.91 834.83 1386.91 863.27 1466.91 834.83"/>
  <line class="cls-2" x1="1386.91" y1="863.35" x2="1386.91" y2="909.45"/>
  <polygon class="cls-2" points="1306.91 789.79 1386.91 761.36 1466.91 789.79 1466.91 835.75 1386.91 864.18 1306.91 835.75 1306.91 789.79"/>
  <polyline class="cls-2" points="1306.91 789.75 1386.91 818.2 1466.91 789.75"/>
  <path class="cls-2" d="M1370.07,778.33c0,3.08,7.54,5.57,16.84,5.57s16.84-2.49,16.84-5.57V764.11c0-3.08-7.54-5.57-16.84-5.57s-16.84,2.49-16.84,5.57Z"/>
  <path class="cls-2" d="M1403.76,764.11c0,3.08-7.54,5.57-16.84,5.57s-16.84-2.49-16.84-5.57"/>
  <path class="cls-2" d="M1370.07,800.87c0,3.08,7.54,5.57,16.84,5.57s16.84-2.49,16.84-5.57V786.65c0-3.08-7.54-5.57-16.84-5.57s-16.84,2.49-16.84,5.57Z"/>
  <path class="cls-2" d="M1403.76,786.65c0,3.08-7.54,5.57-16.84,5.57s-16.84-2.49-16.84-5.57"/>
  <path class="cls-2" d="M1406.57,789.6c0,3.08,7.54,5.57,16.84,5.57s16.84-2.49,16.84-5.57V775.38c0-3.08-7.54-5.57-16.84-5.57s-16.84,2.49-16.84,5.57Z"/>
  <path class="cls-2" d="M1440.25,775.38c0,3.08-7.54,5.57-16.84,5.57s-16.84-2.49-16.84-5.57"/>
  <path class="cls-2" d="M1333.58,789.6c0,3.08,7.54,5.57,16.84,5.57s16.84-2.49,16.84-5.57V775.38c0-3.08-7.54-5.57-16.84-5.57s-16.84,2.49-16.84,5.57Z"/>
  <path class="cls-2" d="M1367.26,775.38c0,3.08-7.54,5.57-16.84,5.57s-16.84-2.49-16.84-5.57"/>
  <line class="cls-2" x1="1386.91" y1="818.27" x2="1386.91" y2="864.38"/>
  <text class="cls-3" transform="translate(1503.9 224.25)">
    <tspan class="cls-4">m</tspan>
    <tspan class="cls-5" x="35.33" y="0">y</tspan>
    <tspan x="58.22" y="0">sql</tspan>
  </text>
  <text class="cls-3" transform="translate(1503.9 435.45)">a
    <tspan class="cls-6" x="22.46" y="0">p</tspan>
    <tspan class="cls-7" x="47.42" y="0">ache</tspan>
  </text>
  <text class="cls-3" transform="translate(1503.9 637.85)">memcache</text>
  <text class="cls-3" transform="translate(1503.9 857.85)">use
    <tspan class="cls-8" x="67.63" y="0">r</tspan>
    <tspan x="84.29" y="0">s</tspan>
  </text>
  <text class="cls-3" transform="translate(328.77 505.99)">N
    <tspan class="cls-9" x="30.34" y="0">o</tspan>
    <tspan x="54" y="0">de</tspan>
  </text>
  <text class="cls-10" transform="translate(209.08 574.01)">hera.example.com
  </text>
  <line class="cls-16" x1="1121.9" y1="215.45" x2="1268.94" y2="215.45"/>
  <line class="cls-16" x1="1121.9" y1="857.85" x2="1268.94" y2="857.85"/>
  <line class="cls-16" x1="1121.9" y1="429.58" x2="1268.94" y2="429.58"/>
  <line class="cls-16" x1="1121.9" y1="643.72" x2="1268.94" y2="643.72"/>
  <polygon class="cls-17" points="765.12 483.75 602.89 483.75 568.46 539.89 568.46 596.25 800.96 596.25 800.96 539.89 765.12 483.75"/>
  <line class="cls-18" x1="568.46" y1="540" x2="799.08" y2="540"/>
</svg>

