<svg xmlns="http://www.w3.org/2000/svg" viewBox="0 0 149.02 122.06"><defs><style>.cls-1{fill:none;}.cls-1,.cls-2{stroke:#222;}.cls-1,.cls-2,.cls-4{stroke-miterlimit:10;stroke-width:4px;}.cls-2{fill:#fff;}.cls-3{fill:#222;}.cls-4{stroke:#000;}</style></defs><title>Asset 1</title><g id="Layer_2" data-name="Layer 2"><g id="Layer_1-2" data-name="Layer 1"><line class="cls-1" x1="38.99" y1="120.06" x2="110.02" y2="120.06"/><line class="cls-1" x1="56.51" y1="119.33" x2="56.51" y2="99.51"/><line class="cls-1" x1="92.51" y1="119.33" x2="92.51" y2="99.51"/><polyline class="cls-2" points="2 76.68 2 2 147.02 2 147.02 76.68"/><rect class="cls-2" x="2" y="76.68" width="145.02" height="22.82"/><path class="cls-3" d="M74.4,86.6a1.5,1.5,0,1,1-1.5,1.5,1.5,1.5,0,0,1,1.5-1.5m0-4a5.5,5.5,0,1,0,5.5,5.5,5.5,5.5,0,0,0-5.5-5.5Z"/><rect class="cls-4" x="2" y="2" width="26.79" height="74.68"/><path class="cls-3" d="M97.44,32.55H87.06L81.48,27V16.59H67.89V30.18H78.28l5.57,5.57h0v7.19h0l-5.57,5.57H67.89V62.09H81.48V51.71h0l5.57-5.57H97.44Zm-25-11.43H77v4.53H72.42ZM77,57.56H72.42V53H77Z"/></g></g></svg>