<?xml version="1.0" encoding="UTF-8" standalone="no"?>
<svg
   xmlns:dc="http://purl.org/dc/elements/1.1/"
   xmlns:cc="http://creativecommons.org/ns#"
   xmlns:rdf="http://www.w3.org/1999/02/22-rdf-syntax-ns#"
   xmlns:svg="http://www.w3.org/2000/svg"
   xmlns="http://www.w3.org/2000/svg"
   xmlns:sodipodi="http://sodipodi.sourceforge.net/DTD/sodipodi-0.dtd"
   xmlns:inkscape="http://www.inkscape.org/namespaces/inkscape"
   id="Layer_1"
   data-name="Layer 1"
   viewBox="0 0 1170.4301 1051.6416"
   version="1.1"
   inkscape:version="0.91 r13725"
   sodipodi:docname="profile.svg"
   width="1170.4301"
   height="1051.6416">
  <metadata
     id="metadata193">
    <rdf:RDF>
      <cc:Work
         rdf:about="">
        <dc:format>image/svg+xml</dc:format>
        <dc:type
           rdf:resource="http://purl.org/dc/dcmitype/StillImage" />
        <dc:title>profile</dc:title>
      </cc:Work>
    </rdf:RDF>
  </metadata>
  <sodipodi:namedview
     pagecolor="#ffffff"
     bordercolor="#666666"
     borderopacity="1"
     objecttolerance="10"
     gridtolerance="10"
     guidetolerance="10"
     inkscape:pageopacity="0"
     inkscape:pageshadow="2"
     inkscape:window-width="2560"
     inkscape:window-height="1395"
     id="namedview191"
     showgrid="false"
     inkscape:zoom="0.96642287"
     inkscape:cx="405.95943"
     inkscape:cy="506.11365"
     inkscape:window-x="1440"
     inkscape:window-y="23"
     inkscape:window-maximized="0"
     inkscape:current-layer="Layer_1"
     fit-margin-top="0"
     fit-margin-left="0"
     fit-margin-right="0"
     fit-margin-bottom="0" />
  <defs
     id="defs3">
    <style
       id="style5">.cls-1,.cls-16,.cls-18{fill:none;}.cls-1,.cls-16{stroke:#3880ff;}.cls-1,.cls-16,.cls-17,.cls-18,.cls-2{stroke-miterlimit:10;stroke-width:8px;}.cls-17,.cls-2{fill:#fff;}.cls-2{stroke:#212222;}.cls-10,.cls-3{font-size:48px;fill:#222;}.cls-3{font-family:Calibre-Semibold, Calibre;font-weight:700;}.cls-4{letter-spacing:-0.01em;}.cls-5{letter-spacing:-0.01em;}.cls-6{letter-spacing:0em;}.cls-7{letter-spacing:0em;}.cls-8{letter-spacing:0em;}.cls-9{letter-spacing:0em;}.cls-10{font-family:Calibre-Regular, Calibre;}.cls-11{letter-spacing:-0.01em;}.cls-12{letter-spacing:-0.01em;}.cls-13{letter-spacing:0em;}.cls-14{letter-spacing:-0.01em;}.cls-15{letter-spacing:0em;}.cls-16{stroke-linecap:square;}.cls-17,.cls-18{stroke:#222;}</style>
  </defs>
  <title
     id="title7">profile</title>
  <line
     class="cls-1"
     x1="255.78259"
     y1="518.39539"
     x2="576.4126"
     y2="518.39539"
     id="line9"
     style="fill:none;stroke:#3880ff;stroke-width:8px;stroke-miterlimit:10" />
  <line
     class="cls-1"
     x1="576.4126"
     y1="97.61422"
     x2="576.4126"
     y2="950.0672"
     id="line11"
     style="fill:none;stroke:#3880ff;stroke-width:9.21557426px;stroke-miterlimit:10" />
  <polygon
     class="cls-2"
     points="1306.91,292.83 1306.91,246.87 1306.91,246.87 1386.91,218.44 1466.91,246.87 1466.91,292.83 1386.91,321.26 "
     id="polygon13"
     transform="translate(-545.48743,-120.13848)"
     style="fill:#ffffff;stroke:#212222;stroke-width:8px;stroke-miterlimit:10" />
  <polyline
     class="cls-2"
     points="1306.91 246.83 1386.91 275.27 1466.91 246.83"
     id="polyline15"
     transform="translate(-545.48743,-120.13848)"
     style="fill:#ffffff;stroke:#212222;stroke-width:8px;stroke-miterlimit:10" />
  <line
     class="cls-2"
     x1="841.42261"
     y1="155.21152"
     x2="841.42261"
     y2="201.31154"
     id="line17"
     style="fill:#ffffff;stroke:#212222;stroke-width:8px;stroke-miterlimit:10" />
  <polygon
     class="cls-2"
     points="1306.91,247.23 1306.91,201.27 1306.91,201.27 1386.91,172.84 1466.91,201.27 1466.91,247.23 1386.91,275.66 "
     id="polygon19"
     transform="translate(-545.48743,-120.13848)"
     style="fill:#ffffff;stroke:#212222;stroke-width:8px;stroke-miterlimit:10" />
  <polyline
     class="cls-2"
     points="1306.91 201.23 1386.91 229.67 1466.91 201.23"
     id="polyline21"
     transform="translate(-545.48743,-120.13848)"
     style="fill:#ffffff;stroke:#212222;stroke-width:8px;stroke-miterlimit:10" />
  <line
     class="cls-2"
     x1="841.42261"
     y1="109.6115"
     x2="841.42261"
     y2="155.71152"
     id="line23"
     style="fill:#ffffff;stroke:#212222;stroke-width:8px;stroke-miterlimit:10" />
  <polygon
     class="cls-2"
     points="1306.91,202.16 1306.91,156.19 1306.91,156.19 1386.91,127.76 1466.91,156.19 1466.91,202.16 1386.91,230.59 "
     id="polygon25"
     transform="translate(-545.48743,-120.13848)"
     style="fill:#ffffff;stroke:#212222;stroke-width:8px;stroke-miterlimit:10" />
  <polyline
     class="cls-2"
     points="1306.91 156.16 1386.91 184.6 1466.91 156.16"
     id="polyline27"
     transform="translate(-545.48743,-120.13848)"
     style="fill:#ffffff;stroke:#212222;stroke-width:8px;stroke-miterlimit:10" />
  <path
     class="cls-2"
     d="m 824.58257,23.79 c 0,3.08 7.54,5.57 16.84,5.57 9.3,0 16.84,-2.49 16.84,-5.57 l 0,-14.22 c 0,-3.08 -7.54,-5.57 -16.84,-5.57 -9.3,0 -16.84,2.49 -16.84,5.57 z"
     id="path29"
     inkscape:connector-curvature="0"
     style="fill:#ffffff;stroke:#212222;stroke-width:8px;stroke-miterlimit:10" />
  <path
     class="cls-2"
     d="m 858.27257,10.371515 c 0,3.08 -7.54,5.57 -16.84,5.57 -9.3,0 -16.84,-2.49 -16.84,-5.57"
     id="path31"
     inkscape:connector-curvature="0"
     style="fill:#ffffff;stroke:#212222;stroke-width:8px;stroke-miterlimit:10" />
  <path
     class="cls-2"
     d="m 824.58257,47.131514 c 0,3.08 7.54,5.57 16.84,5.57 9.3,0 16.84,-2.49 16.84,-5.57 l 0,-14.219999 c 0,-3.08 -7.54,-5.57 -16.84,-5.57 -9.3,0 -16.84,2.49 -16.84,5.57 z"
     id="path33"
     inkscape:connector-curvature="0"
     style="fill:#ffffff;stroke:#212222;stroke-width:8px;stroke-miterlimit:10" />
  <path
     class="cls-2"
     d="m 858.27257,32.911515 c 0,3.08 -7.54,5.57 -16.84,5.57 -9.3,0 -16.84,-2.49 -16.84,-5.57"
     id="path35"
     inkscape:connector-curvature="0"
     style="fill:#ffffff;stroke:#212222;stroke-width:8px;stroke-miterlimit:10" />
  <path
     class="cls-2"
     d="m 861.08257,35.861515 c 0,3.08 7.54,5.57 16.84,5.57 9.3,0 16.84,-2.49 16.84,-5.57 l 0,-14.22 c 0,-3.08 -7.54,-5.57 -16.84,-5.57 -9.3,0 -16.84,2.49 -16.84,5.57 z"
     id="path37"
     inkscape:connector-curvature="0"
     style="fill:#ffffff;stroke:#212222;stroke-width:8px;stroke-miterlimit:10" />
  <path
     class="cls-2"
     d="m 894.76257,21.641515 c 0,3.08 -7.54,5.57 -16.84,5.57 -9.3,0 -16.84,-2.49 -16.84,-5.57"
     id="path39"
     inkscape:connector-curvature="0"
     style="fill:#ffffff;stroke:#212222;stroke-width:8px;stroke-miterlimit:10" />
  <path
     class="cls-2"
     d="m 788.09257,35.861515 c 0,3.08 7.54,5.57 16.84,5.57 9.3,0 16.84,-2.49 16.84,-5.57 l 0,-14.22 c 0,-3.08 -7.54,-5.57 -16.84,-5.57 -9.3,0 -16.84,2.49 -16.84,5.57 z"
     id="path41"
     inkscape:connector-curvature="0"
     style="fill:#ffffff;stroke:#212222;stroke-width:8px;stroke-miterlimit:10" />
  <path
     class="cls-2"
     d="m 821.77257,21.641515 c 0,3.08 -7.54,5.57 -16.84,5.57 -9.3,0 -16.84,-2.49 -16.84,-5.57"
     id="path43"
     inkscape:connector-curvature="0"
     style="fill:#ffffff;stroke:#212222;stroke-width:8px;stroke-miterlimit:10" />
  <line
     class="cls-2"
     x1="841.42261"
     y1="64.531509"
     x2="841.42261"
     y2="110.6415"
     id="line45"
     style="fill:#ffffff;stroke:#212222;stroke-width:8px;stroke-miterlimit:10" />
  <polygon
     class="cls-2"
     points="1306.91,504.03 1306.91,458.07 1306.91,458.07 1386.91,429.64 1466.91,458.07 1466.91,504.03 1386.91,532.46 "
     id="polygon47"
     transform="translate(-545.48743,-120.13848)"
     style="fill:#ffffff;stroke:#212222;stroke-width:8px;stroke-miterlimit:10" />
  <polyline
     class="cls-2"
     points="1306.91 458.03 1386.91 486.47 1466.91 458.03"
     id="polyline49"
     transform="translate(-545.48743,-120.13848)"
     style="fill:#ffffff;stroke:#212222;stroke-width:8px;stroke-miterlimit:10" />
  <line
     class="cls-2"
     x1="841.42261"
     y1="366.4115"
     x2="841.42261"
     y2="412.51154"
     id="line51"
     style="fill:#ffffff;stroke:#212222;stroke-width:8px;stroke-miterlimit:10" />
  <polygon
     class="cls-2"
     points="1306.91,458.43 1306.91,412.47 1306.91,412.47 1386.91,384.04 1466.91,412.47 1466.91,458.43 1386.91,486.86 "
     id="polygon53"
     transform="translate(-545.48743,-120.13848)"
     style="fill:#ffffff;stroke:#212222;stroke-width:8px;stroke-miterlimit:10" />
  <polyline
     class="cls-2"
     points="1306.91 412.43 1386.91 440.87 1466.91 412.43"
     id="polyline55"
     transform="translate(-545.48743,-120.13848)"
     style="fill:#ffffff;stroke:#212222;stroke-width:8px;stroke-miterlimit:10" />
  <line
     class="cls-2"
     x1="841.42261"
     y1="320.81152"
     x2="841.42261"
     y2="366.9115"
     id="line57"
     style="fill:#ffffff;stroke:#212222;stroke-width:8px;stroke-miterlimit:10" />
  <polygon
     class="cls-2"
     points="1306.91,413.36 1306.91,367.39 1306.91,367.39 1386.91,338.96 1466.91,367.39 1466.91,413.36 1386.91,441.79 "
     id="polygon59"
     transform="translate(-545.48743,-120.13848)"
     style="fill:#ffffff;stroke:#212222;stroke-width:8px;stroke-miterlimit:10" />
  <polyline
     class="cls-2"
     points="1306.91 367.36 1386.91 395.8 1466.91 367.36"
     id="polyline61"
     transform="translate(-545.48743,-120.13848)"
     style="fill:#ffffff;stroke:#212222;stroke-width:8px;stroke-miterlimit:10" />
  <path
     class="cls-2"
     d="m 824.58257,235.79152 c 0,3.08 7.54,5.57 16.84,5.57 9.3,0 16.84,-2.49 16.84,-5.57 l 0,-14.22 c 0,-3.08 -7.54,-5.57 -16.84,-5.57 -9.3,0 -16.84,2.49 -16.84,5.57 z"
     id="path63"
     inkscape:connector-curvature="0"
     style="fill:#ffffff;stroke:#212222;stroke-width:8px;stroke-miterlimit:10" />
  <path
     class="cls-2"
     d="m 858.27257,221.57152 c 0,3.08 -7.54,5.57 -16.84,5.57 -9.3,0 -16.84,-2.49 -16.84,-5.57"
     id="path65"
     inkscape:connector-curvature="0"
     style="fill:#ffffff;stroke:#212222;stroke-width:8px;stroke-miterlimit:10" />
  <path
     class="cls-2"
     d="m 824.58257,258.33152 c 0,3.08 7.54,5.57 16.84,5.57 9.3,0 16.84,-2.49 16.84,-5.57 l 0,-14.22 c 0,-3.08 -7.54,-5.57 -16.84,-5.57 -9.3,0 -16.84,2.49 -16.84,5.57 z"
     id="path67"
     inkscape:connector-curvature="0"
     style="fill:#ffffff;stroke:#212222;stroke-width:8px;stroke-miterlimit:10" />
  <path
     class="cls-2"
     d="m 858.27257,244.11152 c 0,3.08 -7.54,5.57 -16.84,5.57 -9.3,0 -16.84,-2.49 -16.84,-5.57"
     id="path69"
     inkscape:connector-curvature="0"
     style="fill:#ffffff;stroke:#212222;stroke-width:8px;stroke-miterlimit:10" />
  <path
     class="cls-2"
     d="m 861.08257,247.06152 c 0,3.08 7.54,5.57 16.84,5.57 9.3,0 16.84,-2.49 16.84,-5.57 l 0,-14.2 c 0,-3.08 -7.54,-5.57 -16.84,-5.57 -9.3,0 -16.84,2.49 -16.84,5.57 z"
     id="path71"
     inkscape:connector-curvature="0"
     style="fill:#ffffff;stroke:#212222;stroke-width:8px;stroke-miterlimit:10" />
  <path
     class="cls-2"
     d="m 894.76257,232.86152 c 0,3.08 -7.54,5.57 -16.84,5.57 -9.3,0 -16.84,-2.49 -16.84,-5.57"
     id="path73"
     inkscape:connector-curvature="0"
     style="fill:#ffffff;stroke:#212222;stroke-width:8px;stroke-miterlimit:10" />
  <path
     class="cls-2"
     d="m 788.09257,247.06152 c 0,3.08 7.54,5.57 16.84,5.57 9.3,0 16.84,-2.49 16.84,-5.57 l 0,-14.2 c 0,-3.08 -7.54,-5.57 -16.84,-5.57 -9.3,0 -16.84,2.49 -16.84,5.57 z"
     id="path75"
     inkscape:connector-curvature="0"
     style="fill:#ffffff;stroke:#212222;stroke-width:8px;stroke-miterlimit:10" />
  <path
     class="cls-2"
     d="m 821.77257,232.86152 c 0,3.08 -7.54,5.57 -16.84,5.57 -9.3,0 -16.84,-2.49 -16.84,-5.57"
     id="path77"
     inkscape:connector-curvature="0"
     style="fill:#ffffff;stroke:#212222;stroke-width:8px;stroke-miterlimit:10" />
  <line
     class="cls-2"
     x1="841.42261"
     y1="275.73151"
     x2="841.42261"
     y2="321.84152"
     id="line79"
     style="fill:#ffffff;stroke:#212222;stroke-width:8px;stroke-miterlimit:10" />
  <polygon
     class="cls-2"
     points="1306.91,715.23 1306.91,669.27 1306.91,669.27 1386.91,640.84 1466.91,669.27 1466.91,715.23 1386.91,743.66 "
     id="polygon81"
     transform="translate(-545.48743,-120.13848)"
     style="fill:#ffffff;stroke:#212222;stroke-width:8px;stroke-miterlimit:10" />
  <polyline
     class="cls-2"
     points="1306.91 669.23 1386.91 697.67 1466.91 669.23"
     id="polyline83"
     transform="translate(-545.48743,-120.13848)"
     style="fill:#ffffff;stroke:#212222;stroke-width:8px;stroke-miterlimit:10" />
  <line
     class="cls-2"
     x1="841.42261"
     y1="577.61151"
     x2="841.42261"
     y2="623.71149"
     id="line85"
     style="fill:#ffffff;stroke:#212222;stroke-width:8px;stroke-miterlimit:10" />
  <polygon
     class="cls-2"
     points="1306.91,669.63 1306.91,623.67 1306.91,623.67 1386.91,595.24 1466.91,623.67 1466.91,669.63 1386.91,698.06 "
     id="polygon87"
     transform="translate(-545.48743,-120.13848)"
     style="fill:#ffffff;stroke:#212222;stroke-width:8px;stroke-miterlimit:10" />
  <polyline
     class="cls-2"
     points="1306.91 623.63 1386.91 652.07 1466.91 623.63"
     id="polyline89"
     transform="translate(-545.48743,-120.13848)"
     style="fill:#ffffff;stroke:#212222;stroke-width:8px;stroke-miterlimit:10" />
  <line
     class="cls-2"
     x1="841.42261"
     y1="532.01154"
     x2="841.42261"
     y2="578.11151"
     id="line91"
     style="fill:#ffffff;stroke:#212222;stroke-width:8px;stroke-miterlimit:10" />
  <polygon
     class="cls-2"
     points="1306.91,624.55 1306.91,578.59 1306.91,578.59 1386.91,550.16 1466.91,578.59 1466.91,624.55 1386.91,652.99 "
     id="polygon93"
     transform="translate(-545.48743,-120.13848)"
     style="fill:#ffffff;stroke:#212222;stroke-width:8px;stroke-miterlimit:10" />
  <polyline
     class="cls-2"
     points="1306.91 578.55 1386.91 607 1466.91 578.55"
     id="polyline95"
     transform="translate(-545.48743,-120.13848)"
     style="fill:#ffffff;stroke:#212222;stroke-width:8px;stroke-miterlimit:10" />
  <path
     class="cls-2"
     d="m 824.58257,446.99152 c 0,3.08 7.54,5.57 16.84,5.57 9.3,0 16.84,-2.49 16.84,-5.57 l 0,-14.22 c 0,-3.08 -7.54,-5.57 -16.84,-5.57 -9.3,0 -16.84,2.49 -16.84,5.57 z"
     id="path97"
     inkscape:connector-curvature="0"
     style="fill:#ffffff;stroke:#212222;stroke-width:8px;stroke-miterlimit:10" />
  <path
     class="cls-2"
     d="m 858.27257,432.77152 c 0,3.08 -7.54,5.57 -16.84,5.57 -9.3,0 -16.84,-2.49 -16.84,-5.57"
     id="path99"
     inkscape:connector-curvature="0"
     style="fill:#ffffff;stroke:#212222;stroke-width:8px;stroke-miterlimit:10" />
  <path
     class="cls-2"
     d="m 824.58257,469.53152 c 0,3.08 7.54,5.57 16.84,5.57 9.3,0 16.84,-2.49 16.84,-5.57 l 0,-14.22 c 0,-3.08 -7.54,-5.57 -16.84,-5.57 -9.3,0 -16.84,2.49 -16.84,5.57 z"
     id="path101"
     inkscape:connector-curvature="0"
     style="fill:#ffffff;stroke:#212222;stroke-width:8px;stroke-miterlimit:10" />
  <path
     class="cls-2"
     d="m 858.27257,455.31152 c 0,3.08 -7.54,5.57 -16.84,5.57 -9.3,0 -16.84,-2.49 -16.84,-5.57"
     id="path103"
     inkscape:connector-curvature="0"
     style="fill:#ffffff;stroke:#212222;stroke-width:8px;stroke-miterlimit:10" />
  <path
     class="cls-2"
     d="m 861.08257,458.26152 c 0,3.08 7.54,5.57 16.84,5.57 9.3,0 16.84,-2.49 16.84,-5.57 l 0,-14.22 c 0,-3.08 -7.54,-5.57 -16.84,-5.57 -9.3,0 -16.84,2.49 -16.84,5.57 z"
     id="path105"
     inkscape:connector-curvature="0"
     style="fill:#ffffff;stroke:#212222;stroke-width:8px;stroke-miterlimit:10" />
  <path
     class="cls-2"
     d="m 894.76257,444.04152 c 0,3.08 -7.54,5.57 -16.84,5.57 -9.3,0 -16.84,-2.49 -16.84,-5.57"
     id="path107"
     inkscape:connector-curvature="0"
     style="fill:#ffffff;stroke:#212222;stroke-width:8px;stroke-miterlimit:10" />
  <path
     class="cls-2"
     d="m 788.09257,458.26152 c 0,3.08 7.54,5.57 16.84,5.57 9.3,0 16.84,-2.49 16.84,-5.57 l 0,-14.22 c 0,-3.08 -7.54,-5.57 -16.84,-5.57 -9.3,0 -16.84,2.49 -16.84,5.57 z"
     id="path109"
     inkscape:connector-curvature="0"
     style="fill:#ffffff;stroke:#212222;stroke-width:8px;stroke-miterlimit:10" />
  <path
     class="cls-2"
     d="m 821.77257,444.04152 c 0,3.08 -7.54,5.57 -16.84,5.57 -9.3,0 -16.84,-2.49 -16.84,-5.57"
     id="path111"
     inkscape:connector-curvature="0"
     style="fill:#ffffff;stroke:#212222;stroke-width:8px;stroke-miterlimit:10" />
  <line
     class="cls-2"
     x1="841.42261"
     y1="486.93152"
     x2="841.42261"
     y2="533.0415"
     id="line113"
     style="fill:#ffffff;stroke:#212222;stroke-width:8px;stroke-miterlimit:10" />
  <polygon
     class="cls-2"
     points="1386.91,954.86 1306.91,926.43 1306.91,880.47 1306.91,880.47 1386.91,852.04 1466.91,880.47 1466.91,926.43 "
     id="polygon115"
     transform="translate(-545.48743,92.536587)"
     style="fill:#ffffff;stroke:#212222;stroke-width:8px;stroke-miterlimit:10" />
  <polyline
     class="cls-2"
     points="1306.91 880.43 1386.91 908.87 1466.91 880.43"
     id="polyline117"
     transform="translate(-545.48743,92.536587)"
     style="fill:#ffffff;stroke:#212222;stroke-width:8px;stroke-miterlimit:10" />
  <line
     class="cls-2"
     x1="841.42261"
     y1="1001.4866"
     x2="841.42261"
     y2="1047.5865"
     id="line119"
     style="fill:#ffffff;stroke:#212222;stroke-width:8px;stroke-miterlimit:10" />
  <polygon
     class="cls-2"
     points="1386.91,909.26 1306.91,880.83 1306.91,834.87 1306.91,834.87 1386.91,806.44 1466.91,834.87 1466.91,880.83 "
     id="polygon121"
     transform="translate(-545.48743,92.536587)"
     style="fill:#ffffff;stroke:#212222;stroke-width:8px;stroke-miterlimit:10" />
  <polyline
     class="cls-2"
     points="1306.91 834.83 1386.91 863.27 1466.91 834.83"
     id="polyline123"
     transform="translate(-545.48743,92.536587)"
     style="fill:#ffffff;stroke:#212222;stroke-width:8px;stroke-miterlimit:10" />
  <line
     class="cls-2"
     x1="841.42261"
     y1="955.88654"
     x2="841.42261"
     y2="1001.9866"
     id="line125"
     style="fill:#ffffff;stroke:#212222;stroke-width:8px;stroke-miterlimit:10" />
  <polygon
     class="cls-2"
     points="1386.91,864.18 1306.91,835.75 1306.91,789.79 1306.91,789.79 1386.91,761.36 1466.91,789.79 1466.91,835.75 "
     id="polygon127"
     transform="translate(-545.48743,92.536587)"
     style="fill:#ffffff;stroke:#212222;stroke-width:8px;stroke-miterlimit:10" />
  <polyline
     class="cls-2"
     points="1306.91 789.75 1386.91 818.2 1466.91 789.75"
     id="polyline129"
     transform="translate(-545.48743,92.536587)"
     style="fill:#ffffff;stroke:#212222;stroke-width:8px;stroke-miterlimit:10" />
  <path
     class="cls-2"
     d="m 824.58257,870.86659 c 0,3.08 7.54,5.57 16.84,5.57 9.3,0 16.84,-2.49 16.84,-5.57 l 0,-14.22 c 0,-3.08 -7.54,-5.57 -16.84,-5.57 -9.3,0 -16.84,2.49 -16.84,5.57 z"
     id="path131"
     inkscape:connector-curvature="0"
     style="fill:#ffffff;stroke:#212222;stroke-width:8px;stroke-miterlimit:10" />
  <path
     class="cls-2"
     d="m 858.27257,856.64659 c 0,3.08 -7.54,5.57 -16.84,5.57 -9.3,0 -16.84,-2.49 -16.84,-5.57"
     id="path133"
     inkscape:connector-curvature="0"
     style="fill:#ffffff;stroke:#212222;stroke-width:8px;stroke-miterlimit:10" />
  <path
     class="cls-2"
     d="m 824.58257,893.40659 c 0,3.08 7.54,5.57 16.84,5.57 9.3,0 16.84,-2.49 16.84,-5.57 l 0,-14.22 c 0,-3.08 -7.54,-5.57 -16.84,-5.57 -9.3,0 -16.84,2.49 -16.84,5.57 z"
     id="path135"
     inkscape:connector-curvature="0"
     style="fill:#ffffff;stroke:#212222;stroke-width:8px;stroke-miterlimit:10" />
  <path
     class="cls-2"
     d="m 858.27257,879.18659 c 0,3.08 -7.54,5.57 -16.84,5.57 -9.3,0 -16.84,-2.49 -16.84,-5.57"
     id="path137"
     inkscape:connector-curvature="0"
     style="fill:#ffffff;stroke:#212222;stroke-width:8px;stroke-miterlimit:10" />
  <path
     class="cls-2"
     d="m 861.08257,882.13659 c 0,3.08 7.54,5.57 16.84,5.57 9.3,0 16.84,-2.49 16.84,-5.57 l 0,-14.22 c 0,-3.08 -7.54,-5.57 -16.84,-5.57 -9.3,0 -16.84,2.49 -16.84,5.57 z"
     id="path139"
     inkscape:connector-curvature="0"
     style="fill:#ffffff;stroke:#212222;stroke-width:8px;stroke-miterlimit:10" />
  <path
     class="cls-2"
     d="m 894.76257,867.91659 c 0,3.08 -7.54,5.57 -16.84,5.57 -9.3,0 -16.84,-2.49 -16.84,-5.57"
     id="path141"
     inkscape:connector-curvature="0"
     style="fill:#ffffff;stroke:#212222;stroke-width:8px;stroke-miterlimit:10" />
  <path
     class="cls-2"
     d="m 788.09257,882.13659 c 0,3.08 7.54,5.57 16.84,5.57 9.3,0 16.84,-2.49 16.84,-5.57 l 0,-14.22 c 0,-3.08 -7.54,-5.57 -16.84,-5.57 -9.3,0 -16.84,2.49 -16.84,5.57 z"
     id="path143"
     inkscape:connector-curvature="0"
     style="fill:#ffffff;stroke:#212222;stroke-width:8px;stroke-miterlimit:10" />
  <path
     class="cls-2"
     d="m 821.77257,867.91659 c 0,3.08 -7.54,5.57 -16.84,5.57 -9.3,0 -16.84,-2.49 -16.84,-5.57"
     id="path145"
     inkscape:connector-curvature="0"
     style="fill:#ffffff;stroke:#212222;stroke-width:8px;stroke-miterlimit:10" />
  <line
     class="cls-2"
     x1="841.42261"
     y1="910.80658"
     x2="841.42261"
     y2="956.91656"
     id="line147"
     style="fill:#ffffff;stroke:#212222;stroke-width:8px;stroke-miterlimit:10" />
  <text
     class="cls-3"
     id="text149"
     x="958.4126"
     y="104.1115"
     style="font-weight:700;font-size:48px;font-family:Calibre-Semibold, Calibre;fill:#222222">apache</text>
  <text
     class="cls-3"
     id="text157"
     x="958.4126"
     y="315.31149"
     style="font-weight:700;font-size:48px;font-family:Calibre-Semibold, Calibre;fill:#222222">php</text>
  <text
     class="cls-3"
     id="text163"
     x="958.4126"
     y="517.71149"
     style="font-weight:700;font-size:48px;font-family:Calibre-Semibold, Calibre;fill:#222222">tomcat</text>
  <text
     class="cls-3"
     id="text165"
     x="958.4126"
     y="950.3866"
     style="font-weight:700;font-size:48px;font-family:Calibre-Semibold, Calibre;fill:#222222">memcache</text>
  <text
     class="cls-10"
     id="text177"
     style="font-size:48px;font-family:Calibre-Regular, Calibre;fill:#222222"
     x="22.112976"
     y="528.26013">profile::web</text>
  <line
     class="cls-16"
     x1="576.4126"
     y1="95.311501"
     x2="723.45251"
     y2="95.311501"
     id="line179"
     style="fill:none;stroke:#3880ff;stroke-width:8px;stroke-linecap:square;stroke-miterlimit:10" />
  <line
     class="cls-16"
     x1="576.4126"
     y1="950.38654"
     x2="723.45251"
     y2="950.38654"
     id="line181"
     style="fill:none;stroke:#3880ff;stroke-width:8px;stroke-linecap:square;stroke-miterlimit:10" />
  <line
     class="cls-16"
     x1="576.4126"
     y1="309.4415"
     x2="723.45251"
     y2="309.4415"
     id="line183"
     style="fill:none;stroke:#3880ff;stroke-width:8px;stroke-linecap:square;stroke-miterlimit:10" />
  <line
     class="cls-16"
     x1="576.4126"
     y1="518.40778"
     x2="723.45251"
     y2="518.40778"
     id="line185"
     style="fill:none;stroke:#3880ff;stroke-width:8px;stroke-linecap:square;stroke-miterlimit:10" />
  <rect
     style="fill:none;fill-rule:evenodd;stroke:#000000;stroke-width:8;stroke-linecap:butt;stroke-linejoin:miter;stroke-miterlimit:4;stroke-dasharray:none;stroke-opacity:1"
     id="rect3521"
     width="250.96428"
     height="76.825798"
     x="4"
     y="479.64102" />
  <line
     class="cls-16"
     x1="576.1217"
     y1="737.62482"
     x2="723.16162"
     y2="737.62482"
     id="line181-8"
     style="fill:none;stroke:#3880ff;stroke-width:8px;stroke-linecap:square;stroke-miterlimit:10" />
  <polygon
     class="cls-2"
     points="1386.91,954.86 1306.91,926.43 1306.91,880.47 1306.91,880.47 1386.91,852.04 1466.91,880.47 1466.91,926.43 "
     id="polygon115-1"
     transform="translate(-546.09986,-119.19769)"
     style="fill:#ffffff;stroke:#212222;stroke-width:8px;stroke-miterlimit:10" />
  <polyline
     class="cls-2"
     points="1306.91 880.43 1386.91 908.87 1466.91 880.43"
     id="polyline117-9"
     transform="translate(-546.09986,-119.19769)"
     style="fill:#ffffff;stroke:#212222;stroke-width:8px;stroke-miterlimit:10" />
  <line
     class="cls-2"
     x1="840.81018"
     y1="789.75232"
     x2="840.81018"
     y2="835.85229"
     id="line119-0"
     style="fill:#ffffff;stroke:#212222;stroke-width:8px;stroke-miterlimit:10" />
  <polygon
     class="cls-2"
     points="1386.91,909.26 1306.91,880.83 1306.91,834.87 1306.91,834.87 1386.91,806.44 1466.91,834.87 1466.91,880.83 "
     id="polygon121-9"
     transform="translate(-546.09986,-119.19769)"
     style="fill:#ffffff;stroke:#212222;stroke-width:8px;stroke-miterlimit:10" />
  <polyline
     class="cls-2"
     points="1306.91 834.83 1386.91 863.27 1466.91 834.83"
     id="polyline123-2"
     transform="translate(-546.09986,-119.19769)"
     style="fill:#ffffff;stroke:#212222;stroke-width:8px;stroke-miterlimit:10" />
  <line
     class="cls-2"
     x1="840.81018"
     y1="744.15228"
     x2="840.81018"
     y2="790.25232"
     id="line125-4"
     style="fill:#ffffff;stroke:#212222;stroke-width:8px;stroke-miterlimit:10" />
  <polygon
     class="cls-2"
     points="1386.91,864.18 1306.91,835.75 1306.91,789.79 1306.91,789.79 1386.91,761.36 1466.91,789.79 1466.91,835.75 "
     id="polygon127-0"
     transform="translate(-546.09986,-119.19769)"
     style="fill:#ffffff;stroke:#212222;stroke-width:8px;stroke-miterlimit:10" />
  <polyline
     class="cls-2"
     points="1306.91 789.75 1386.91 818.2 1466.91 789.75"
     id="polyline129-2"
     transform="translate(-546.09986,-119.19769)"
     style="fill:#ffffff;stroke:#212222;stroke-width:8px;stroke-miterlimit:10" />
  <path
     class="cls-2"
     d="m 823.97007,659.13231 c 0,3.08 7.54,5.57 16.84,5.57 9.3,0 16.84,-2.49 16.84,-5.57 l 0,-14.22 c 0,-3.08 -7.54,-5.57 -16.84,-5.57 -9.3,0 -16.84,2.49 -16.84,5.57 z"
     id="path131-8"
     inkscape:connector-curvature="0"
     style="fill:#ffffff;stroke:#212222;stroke-width:8px;stroke-miterlimit:10" />
  <path
     class="cls-2"
     d="m 857.66007,644.91231 c 0,3.08 -7.54,5.57 -16.84,5.57 -9.3,0 -16.84,-2.49 -16.84,-5.57"
     id="path133-5"
     inkscape:connector-curvature="0"
     style="fill:#ffffff;stroke:#212222;stroke-width:8px;stroke-miterlimit:10" />
  <path
     class="cls-2"
     d="m 823.97007,681.67231 c 0,3.08 7.54,5.57 16.84,5.57 9.3,0 16.84,-2.49 16.84,-5.57 l 0,-14.22 c 0,-3.08 -7.54,-5.57 -16.84,-5.57 -9.3,0 -16.84,2.49 -16.84,5.57 z"
     id="path135-9"
     inkscape:connector-curvature="0"
     style="fill:#ffffff;stroke:#212222;stroke-width:8px;stroke-miterlimit:10" />
  <path
     class="cls-2"
     d="m 857.66007,667.45231 c 0,3.08 -7.54,5.57 -16.84,5.57 -9.3,0 -16.84,-2.49 -16.84,-5.57"
     id="path137-7"
     inkscape:connector-curvature="0"
     style="fill:#ffffff;stroke:#212222;stroke-width:8px;stroke-miterlimit:10" />
  <path
     class="cls-2"
     d="m 860.47007,670.40231 c 0,3.08 7.54,5.57 16.84,5.57 9.3,0 16.84,-2.49 16.84,-5.57 l 0,-14.22 c 0,-3.08 -7.54,-5.57 -16.84,-5.57 -9.3,0 -16.84,2.49 -16.84,5.57 z"
     id="path139-1"
     inkscape:connector-curvature="0"
     style="fill:#ffffff;stroke:#212222;stroke-width:8px;stroke-miterlimit:10" />
  <path
     class="cls-2"
     d="m 894.15007,656.18231 c 0,3.08 -7.54,5.57 -16.84,5.57 -9.3,0 -16.84,-2.49 -16.84,-5.57"
     id="path141-5"
     inkscape:connector-curvature="0"
     style="fill:#ffffff;stroke:#212222;stroke-width:8px;stroke-miterlimit:10" />
  <path
     class="cls-2"
     d="m 787.48007,670.40231 c 0,3.08 7.54,5.57 16.84,5.57 9.3,0 16.84,-2.49 16.84,-5.57 l 0,-14.22 c 0,-3.08 -7.54,-5.57 -16.84,-5.57 -9.3,0 -16.84,2.49 -16.84,5.57 z"
     id="path143-6"
     inkscape:connector-curvature="0"
     style="fill:#ffffff;stroke:#212222;stroke-width:8px;stroke-miterlimit:10" />
  <path
     class="cls-2"
     d="m 821.16007,656.18231 c 0,3.08 -7.54,5.57 -16.84,5.57 -9.3,0 -16.84,-2.49 -16.84,-5.57"
     id="path145-9"
     inkscape:connector-curvature="0"
     style="fill:#ffffff;stroke:#212222;stroke-width:8px;stroke-miterlimit:10" />
  <line
     class="cls-2"
     x1="840.81018"
     y1="699.07233"
     x2="840.81018"
     y2="745.18231"
     id="line147-6"
     style="fill:#ffffff;stroke:#212222;stroke-width:8px;stroke-miterlimit:10" />
  <text
     class="cls-3"
     id="text165-4"
     x="957.80017"
     y="738.65234"
     style="font-weight:700;font-size:48px;font-family:Calibre-Semibold, Calibre;fill:#222222">jdk</text>
</svg>
