<svg
   xmlns:dc="http://purl.org/dc/elements/1.1/"
   xmlns:cc="http://creativecommons.org/ns#"
   xmlns:rdf="http://www.w3.org/1999/02/22-rdf-syntax-ns#"
   xmlns:svg="http://www.w3.org/2000/svg"
   xmlns="http://www.w3.org/2000/svg"
   xmlns:sodipodi="http://sodipodi.sourceforge.net/DTD/sodipodi-0.dtd"
   xmlns:inkscape="http://www.inkscape.org/namespaces/inkscape"
   id="Layer_1"
   data-name="Layer 1"
   viewBox="0 0 1370.7328 838.1651"
   version="1.1"
   inkscape:version="0.91 r13725"
   sodipodi:docname="roles-profiles.svg"
   width="1370.7328"
   height="838.1651">
  <metadata
     id="metadata193">
    <rdf:RDF>
      <cc:Work
         rdf:about="">
        <dc:format>image/svg+xml</dc:format>
        <dc:type
           rdf:resource="http://purl.org/dc/dcmitype/StillImage" />
        <dc:title>node-many-classes</dc:title>
      </cc:Work>
    </rdf:RDF>
  </metadata>
  <sodipodi:namedview
     pagecolor="#ffffff"
     bordercolor="#666666"
     borderopacity="1"
     objecttolerance="10"
     gridtolerance="10"
     guidetolerance="10"
     inkscape:pageopacity="0"
     inkscape:pageshadow="2"
     inkscape:window-width="2560"
     inkscape:window-height="1440"
     id="namedview191"
     showgrid="false"
     inkscape:zoom="0.8396893"
     inkscape:cx="632.58741"
     inkscape:cy="360.77645"
     inkscape:window-x="1440"
     inkscape:window-y="0"
     inkscape:window-maximized="0"
     inkscape:current-layer="Layer_1"
     fit-margin-top="0"
     fit-margin-left="0"
     fit-margin-right="0"
     fit-margin-bottom="0" />
  <defs
     id="defs3">
    <style
       id="style5">.cls-1,.cls-16,.cls-18{fill:none;}.cls-1,.cls-16{stroke:#3880ff;}.cls-1,.cls-16,.cls-17,.cls-18,.cls-2{stroke-miterlimit:10;stroke-width:8px;}.cls-17,.cls-2{fill:#fff;}.cls-2{stroke:#212222;}.cls-10,.cls-3{font-size:48px;fill:#222;}.cls-3{font-family:Calibre-Semibold, Calibre;font-weight:700;}.cls-4{letter-spacing:-0.01em;}.cls-5{letter-spacing:-0.01em;}.cls-6{letter-spacing:0em;}.cls-7{letter-spacing:0em;}.cls-8{letter-spacing:0em;}.cls-9{letter-spacing:0em;}.cls-10{font-family:Calibre-Regular, Calibre;}.cls-11{letter-spacing:-0.01em;}.cls-12{letter-spacing:-0.01em;}.cls-13{letter-spacing:0em;}.cls-14{letter-spacing:-0.01em;}.cls-15{letter-spacing:0em;}.cls-16{stroke-linecap:square;}.cls-17,.cls-18{stroke:#222;}</style>
  </defs>
  <title
     id="title7">node-many-classes</title>
  <line
     class="cls-1"
     x1="861.09277"
     y1="419.06"
     x2="1021.7228"
     y2="419.06"
     id="line9"
     style="fill:none;stroke:#3880ff;stroke-width:8;stroke-miterlimit:10;stroke-dasharray:none" />
  <line
     class="cls-1"
     x1="1021.7228"
     y1="94.509995"
     x2="1021.7228"
     y2="519.64679"
     id="line11"
     style="fill:none;stroke:#3880ff;stroke-width:8;stroke-miterlimit:10;stroke-dasharray:none" />
  <polygon
     class="cls-2"
     points="1466.91,292.83 1386.91,321.26 1306.91,292.83 1306.91,246.87 1306.91,246.87 1386.91,218.44 1466.91,246.87 "
     id="polygon13"
     style="fill:#ffffff;stroke:#212222;stroke-width:8px;stroke-miterlimit:10"
     transform="translate(-100.17725,-120.94)" />
  <polyline
     class="cls-2"
     points="1306.91 246.83 1386.91 275.27 1466.91 246.83"
     id="polyline15"
     style="fill:#ffffff;stroke:#212222;stroke-width:8px;stroke-miterlimit:10"
     transform="translate(-100.17725,-120.94)" />
  <line
     class="cls-2"
     x1="1286.7328"
     y1="154.41"
     x2="1286.7328"
     y2="200.51001"
     id="line17"
     style="fill:#ffffff;stroke:#212222;stroke-width:8px;stroke-miterlimit:10" />
  <polygon
     class="cls-2"
     points="1466.91,247.23 1386.91,275.66 1306.91,247.23 1306.91,201.27 1306.91,201.27 1386.91,172.84 1466.91,201.27 "
     id="polygon19"
     style="fill:#ffffff;stroke:#212222;stroke-width:8px;stroke-miterlimit:10"
     transform="translate(-100.17725,-120.94)" />
  <polyline
     class="cls-2"
     points="1306.91 201.23 1386.91 229.67 1466.91 201.23"
     id="polyline21"
     style="fill:#ffffff;stroke:#212222;stroke-width:8px;stroke-miterlimit:10"
     transform="translate(-100.17725,-120.94)" />
  <line
     class="cls-2"
     x1="1286.7328"
     y1="108.81"
     x2="1286.7328"
     y2="154.91"
     id="line23"
     style="fill:#ffffff;stroke:#212222;stroke-width:8px;stroke-miterlimit:10" />
  <polygon
     class="cls-2"
     points="1466.91,202.16 1386.91,230.59 1306.91,202.16 1306.91,156.19 1306.91,156.19 1386.91,127.76 1466.91,156.19 "
     id="polygon25"
     style="fill:#ffffff;stroke:#212222;stroke-width:8px;stroke-miterlimit:10"
     transform="translate(-100.17725,-120.94)" />
  <polyline
     class="cls-2"
     points="1306.91 156.16 1386.91 184.6 1466.91 156.16"
     id="polyline27"
     style="fill:#ffffff;stroke:#212222;stroke-width:8px;stroke-miterlimit:10"
     transform="translate(-100.17725,-120.94)" />
  <path
     class="cls-2"
     d="m 1269.8928,23.79 c 0,3.08 7.54,5.57 16.8399,5.57 9.3,0 16.84,-2.49 16.84,-5.57 l 0,-14.22 c 0,-3.08 -7.54,-5.57 -16.84,-5.57 -9.2999,0 -16.8399,2.49 -16.8399,5.57 z"
     id="path29"
     inkscape:connector-curvature="0"
     style="fill:#ffffff;stroke:#212222;stroke-width:8px;stroke-miterlimit:10" />
  <path
     class="cls-2"
     d="m 1303.5828,9.57 c 0,3.08 -7.54,5.57 -16.84,5.57 -9.3,0 -16.84,-2.49 -16.84,-5.57"
     id="path31"
     inkscape:connector-curvature="0"
     style="fill:#ffffff;stroke:#212222;stroke-width:8px;stroke-miterlimit:10" />
  <path
     class="cls-2"
     d="m 1269.8928,46.33 c 0,3.08 7.54,5.57 16.8399,5.57 9.3,0 16.84,-2.49 16.84,-5.57 l 0,-14.22 c 0,-3.08 -7.54,-5.57 -16.84,-5.57 -9.2999,0 -16.8399,2.49 -16.8399,5.57 z"
     id="path33"
     inkscape:connector-curvature="0"
     style="fill:#ffffff;stroke:#212222;stroke-width:8px;stroke-miterlimit:10" />
  <path
     class="cls-2"
     d="m 1303.5828,32.11 c 0,3.08 -7.54,5.57 -16.84,5.57 -9.3,0 -16.84,-2.49 -16.84,-5.57"
     id="path35"
     inkscape:connector-curvature="0"
     style="fill:#ffffff;stroke:#212222;stroke-width:8px;stroke-miterlimit:10" />
  <path
     class="cls-2"
     d="m 1306.3928,35.06 c 0,3.08 7.54,5.57 16.8399,5.57 9.3,0 16.84,-2.49 16.84,-5.57 l 0,-14.22 c 0,-3.08 -7.54,-5.57 -16.84,-5.57 -9.2999,0 -16.8399,2.49 -16.8399,5.57 z"
     id="path37"
     inkscape:connector-curvature="0"
     style="fill:#ffffff;stroke:#212222;stroke-width:8px;stroke-miterlimit:10" />
  <path
     class="cls-2"
     d="m 1340.0728,20.84 c 0,3.08 -7.54,5.57 -16.84,5.57 -9.3,0 -16.84,-2.49 -16.84,-5.57"
     id="path39"
     inkscape:connector-curvature="0"
     style="fill:#ffffff;stroke:#212222;stroke-width:8px;stroke-miterlimit:10" />
  <path
     class="cls-2"
     d="m 1233.4028,35.06 c 0,3.08 7.54,5.57 16.8399,5.57 9.3,0 16.84,-2.49 16.84,-5.57 l 0,-14.22 c 0,-3.08 -7.54,-5.57 -16.84,-5.57 -9.2999,0 -16.8399,2.49 -16.8399,5.57 z"
     id="path41"
     inkscape:connector-curvature="0"
     style="fill:#ffffff;stroke:#212222;stroke-width:8px;stroke-miterlimit:10" />
  <path
     class="cls-2"
     d="m 1267.0828,20.84 c 0,3.08 -7.54,5.57 -16.84,5.57 -9.3,0 -16.84,-2.49 -16.84,-5.57"
     id="path43"
     inkscape:connector-curvature="0"
     style="fill:#ffffff;stroke:#212222;stroke-width:8px;stroke-miterlimit:10" />
  <line
     class="cls-2"
     x1="1286.7328"
     y1="63.73"
     x2="1286.7328"
     y2="109.84"
     id="line45"
     style="fill:#ffffff;stroke:#212222;stroke-width:8px;stroke-miterlimit:10" />
  <polygon
     class="cls-2"
     points="1466.91,504.03 1386.91,532.46 1306.91,504.03 1306.91,458.07 1306.91,458.07 1386.91,429.64 1466.91,458.07 "
     id="polygon47"
     style="fill:#ffffff;stroke:#212222;stroke-width:8px;stroke-miterlimit:10"
     transform="translate(-100.17725,-120.94)" />
  <polyline
     class="cls-2"
     points="1306.91 458.03 1386.91 486.47 1466.91 458.03"
     id="polyline49"
     style="fill:#ffffff;stroke:#212222;stroke-width:8px;stroke-miterlimit:10"
     transform="translate(-100.17725,-120.94)" />
  <line
     class="cls-2"
     x1="1286.7328"
     y1="365.60999"
     x2="1286.7328"
     y2="411.71002"
     id="line51"
     style="fill:#ffffff;stroke:#212222;stroke-width:8px;stroke-miterlimit:10" />
  <polygon
     class="cls-2"
     points="1466.91,458.43 1386.91,486.86 1306.91,458.43 1306.91,412.47 1306.91,412.47 1386.91,384.04 1466.91,412.47 "
     id="polygon53"
     style="fill:#ffffff;stroke:#212222;stroke-width:8px;stroke-miterlimit:10"
     transform="translate(-100.17725,-120.94)" />
  <polyline
     class="cls-2"
     points="1306.91 412.43 1386.91 440.87 1466.91 412.43"
     id="polyline55"
     style="fill:#ffffff;stroke:#212222;stroke-width:8px;stroke-miterlimit:10"
     transform="translate(-100.17725,-120.94)" />
  <line
     class="cls-2"
     x1="1286.7328"
     y1="320.01001"
     x2="1286.7328"
     y2="366.10999"
     id="line57"
     style="fill:#ffffff;stroke:#212222;stroke-width:8px;stroke-miterlimit:10" />
  <polygon
     class="cls-2"
     points="1466.91,413.36 1386.91,441.79 1306.91,413.36 1306.91,367.39 1306.91,367.39 1386.91,338.96 1466.91,367.39 "
     id="polygon59"
     style="fill:#ffffff;stroke:#212222;stroke-width:8px;stroke-miterlimit:10"
     transform="translate(-100.17725,-120.94)" />
  <polyline
     class="cls-2"
     points="1306.91 367.36 1386.91 395.8 1466.91 367.36"
     id="polyline61"
     style="fill:#ffffff;stroke:#212222;stroke-width:8px;stroke-miterlimit:10"
     transform="translate(-100.17725,-120.94)" />
  <path
     class="cls-2"
     d="m 1269.8928,234.99 c 0,3.08 7.54,5.57 16.8399,5.57 9.3,0 16.84,-2.49 16.84,-5.57 l 0,-14.22 c 0,-3.08 -7.54,-5.57 -16.84,-5.57 -9.2999,0 -16.8399,2.49 -16.8399,5.57 z"
     id="path63"
     inkscape:connector-curvature="0"
     style="fill:#ffffff;stroke:#212222;stroke-width:8px;stroke-miterlimit:10" />
  <path
     class="cls-2"
     d="m 1303.5828,220.77 c 0,3.08 -7.54,5.57 -16.84,5.57 -9.3,0 -16.84,-2.49 -16.84,-5.57"
     id="path65"
     inkscape:connector-curvature="0"
     style="fill:#ffffff;stroke:#212222;stroke-width:8px;stroke-miterlimit:10" />
  <path
     class="cls-2"
     d="m 1269.8928,257.53 c 0,3.08 7.54,5.57 16.8399,5.57 9.3,0 16.84,-2.49 16.84,-5.57 l 0,-14.22 c 0,-3.08 -7.54,-5.57 -16.84,-5.57 -9.2999,0 -16.8399,2.49 -16.8399,5.57 z"
     id="path67"
     inkscape:connector-curvature="0"
     style="fill:#ffffff;stroke:#212222;stroke-width:8px;stroke-miterlimit:10" />
  <path
     class="cls-2"
     d="m 1303.5828,243.31 c 0,3.08 -7.54,5.57 -16.84,5.57 -9.3,0 -16.84,-2.49 -16.84,-5.57"
     id="path69"
     inkscape:connector-curvature="0"
     style="fill:#ffffff;stroke:#212222;stroke-width:8px;stroke-miterlimit:10" />
  <path
     class="cls-2"
     d="m 1306.3928,246.26 c 0,3.08 7.54,5.57 16.8399,5.57 9.3,0 16.84,-2.49 16.84,-5.57 l 0,-14.2 c 0,-3.08 -7.54,-5.57 -16.84,-5.57 -9.2999,0 -16.8399,2.49 -16.8399,5.57 z"
     id="path71"
     inkscape:connector-curvature="0"
     style="fill:#ffffff;stroke:#212222;stroke-width:8px;stroke-miterlimit:10" />
  <path
     class="cls-2"
     d="m 1340.0728,232.06 c 0,3.08 -7.54,5.57 -16.84,5.57 -9.3,0 -16.84,-2.49 -16.84,-5.57"
     id="path73"
     inkscape:connector-curvature="0"
     style="fill:#ffffff;stroke:#212222;stroke-width:8px;stroke-miterlimit:10" />
  <path
     class="cls-2"
     d="m 1233.4028,246.26 c 0,3.08 7.54,5.57 16.8399,5.57 9.3,0 16.84,-2.49 16.84,-5.57 l 0,-14.2 c 0,-3.08 -7.54,-5.57 -16.84,-5.57 -9.2999,0 -16.8399,2.49 -16.8399,5.57 z"
     id="path75"
     inkscape:connector-curvature="0"
     style="fill:#ffffff;stroke:#212222;stroke-width:8px;stroke-miterlimit:10" />
  <path
     class="cls-2"
     d="m 1267.0828,232.06 c 0,3.08 -7.54,5.57 -16.84,5.57 -9.3,0 -16.84,-2.49 -16.84,-5.57"
     id="path77"
     inkscape:connector-curvature="0"
     style="fill:#ffffff;stroke:#212222;stroke-width:8px;stroke-miterlimit:10" />
  <line
     class="cls-2"
     x1="1286.7328"
     y1="274.92999"
     x2="1286.7328"
     y2="321.04001"
     id="line79"
     style="fill:#ffffff;stroke:#212222;stroke-width:8px;stroke-miterlimit:10" />
  <polygon
     class="cls-2"
     points="1466.91,715.23 1386.91,743.66 1306.91,715.23 1306.91,669.27 1306.91,669.27 1386.91,640.84 1466.91,669.27 "
     id="polygon81"
     style="fill:#ffffff;stroke:#212222;stroke-width:8px;stroke-miterlimit:10"
     transform="translate(-100.17725,-120.94)" />
  <polyline
     class="cls-2"
     points="1306.91 669.23 1386.91 697.67 1466.91 669.23"
     id="polyline83"
     style="fill:#ffffff;stroke:#212222;stroke-width:8px;stroke-miterlimit:10"
     transform="translate(-100.17725,-120.94)" />
  <line
     class="cls-2"
     x1="1286.7328"
     y1="576.81"
     x2="1286.7328"
     y2="622.90997"
     id="line85"
     style="fill:#ffffff;stroke:#212222;stroke-width:8px;stroke-miterlimit:10" />
  <polygon
     class="cls-2"
     points="1466.91,669.63 1386.91,698.06 1306.91,669.63 1306.91,623.67 1306.91,623.67 1386.91,595.24 1466.91,623.67 "
     id="polygon87"
     style="fill:#ffffff;stroke:#212222;stroke-width:8px;stroke-miterlimit:10"
     transform="translate(-100.17725,-120.94)" />
  <polyline
     class="cls-2"
     points="1306.91 623.63 1386.91 652.07 1466.91 623.63"
     id="polyline89"
     style="fill:#ffffff;stroke:#212222;stroke-width:8px;stroke-miterlimit:10"
     transform="translate(-100.17725,-120.94)" />
  <line
     class="cls-2"
     x1="1286.7328"
     y1="531.21002"
     x2="1286.7328"
     y2="577.31"
     id="line91"
     style="fill:#ffffff;stroke:#212222;stroke-width:8px;stroke-miterlimit:10" />
  <polygon
     class="cls-2"
     points="1466.91,624.55 1386.91,652.99 1306.91,624.55 1306.91,578.59 1306.91,578.59 1386.91,550.16 1466.91,578.59 "
     id="polygon93"
     style="fill:#ffffff;stroke:#212222;stroke-width:8px;stroke-miterlimit:10"
     transform="translate(-100.17725,-120.94)" />
  <polyline
     class="cls-2"
     points="1306.91 578.55 1386.91 607 1466.91 578.55"
     id="polyline95"
     style="fill:#ffffff;stroke:#212222;stroke-width:8px;stroke-miterlimit:10"
     transform="translate(-100.17725,-120.94)" />
  <path
     class="cls-2"
     d="m 1269.8928,446.19 c 0,3.08 7.54,5.57 16.8399,5.57 9.3,0 16.84,-2.49 16.84,-5.57 l 0,-14.22 c 0,-3.08 -7.54,-5.57 -16.84,-5.57 -9.2999,0 -16.8399,2.49 -16.8399,5.57 z"
     id="path97"
     inkscape:connector-curvature="0"
     style="fill:#ffffff;stroke:#212222;stroke-width:8px;stroke-miterlimit:10" />
  <path
     class="cls-2"
     d="m 1303.5828,431.97 c 0,3.08 -7.54,5.57 -16.84,5.57 -9.3,0 -16.84,-2.49 -16.84,-5.57"
     id="path99"
     inkscape:connector-curvature="0"
     style="fill:#ffffff;stroke:#212222;stroke-width:8px;stroke-miterlimit:10" />
  <path
     class="cls-2"
     d="m 1269.8928,468.73 c 0,3.08 7.54,5.57 16.8399,5.57 9.3,0 16.84,-2.49 16.84,-5.57 l 0,-14.22 c 0,-3.08 -7.54,-5.57 -16.84,-5.57 -9.2999,0 -16.8399,2.49 -16.8399,5.57 z"
     id="path101"
     inkscape:connector-curvature="0"
     style="fill:#ffffff;stroke:#212222;stroke-width:8px;stroke-miterlimit:10" />
  <path
     class="cls-2"
     d="m 1303.5828,454.51 c 0,3.08 -7.54,5.57 -16.84,5.57 -9.3,0 -16.84,-2.49 -16.84,-5.57"
     id="path103"
     inkscape:connector-curvature="0"
     style="fill:#ffffff;stroke:#212222;stroke-width:8px;stroke-miterlimit:10" />
  <path
     class="cls-2"
     d="m 1306.3928,457.46 c 0,3.08 7.54,5.57 16.8399,5.57 9.3,0 16.84,-2.49 16.84,-5.57 l 0,-14.22 c 0,-3.08 -7.54,-5.57 -16.84,-5.57 -9.2999,0 -16.8399,2.49 -16.8399,5.57 z"
     id="path105"
     inkscape:connector-curvature="0"
     style="fill:#ffffff;stroke:#212222;stroke-width:8px;stroke-miterlimit:10" />
  <path
     class="cls-2"
     d="m 1340.0728,443.24 c 0,3.08 -7.54,5.57 -16.84,5.57 -9.3,0 -16.84,-2.49 -16.84,-5.57"
     id="path107"
     inkscape:connector-curvature="0"
     style="fill:#ffffff;stroke:#212222;stroke-width:8px;stroke-miterlimit:10" />
  <path
     class="cls-2"
     d="m 1233.4028,457.46 c 0,3.08 7.54,5.57 16.8399,5.57 9.3,0 16.84,-2.49 16.84,-5.57 l 0,-14.22 c 0,-3.08 -7.54,-5.57 -16.84,-5.57 -9.2999,0 -16.8399,2.49 -16.8399,5.57 z"
     id="path109"
     inkscape:connector-curvature="0"
     style="fill:#ffffff;stroke:#212222;stroke-width:8px;stroke-miterlimit:10" />
  <path
     class="cls-2"
     d="m 1267.0828,443.24 c 0,3.08 -7.54,5.57 -16.84,5.57 -9.3,0 -16.84,-2.49 -16.84,-5.57"
     id="path111"
     inkscape:connector-curvature="0"
     style="fill:#ffffff;stroke:#212222;stroke-width:8px;stroke-miterlimit:10" />
  <line
     class="cls-2"
     x1="1286.7328"
     y1="486.13"
     x2="1286.7328"
     y2="532.23999"
     id="line113"
     style="fill:#ffffff;stroke:#212222;stroke-width:8px;stroke-miterlimit:10" />
  <polygon
     class="cls-2"
     points="1466.91,926.43 1386.91,954.86 1306.91,926.43 1306.91,880.47 1306.91,880.47 1386.91,852.04 1466.91,880.47 "
     id="polygon115"
     style="fill:#ffffff;stroke:#212222;stroke-width:8px;stroke-miterlimit:10"
     transform="translate(-100.17725,-120.94)" />
  <polyline
     class="cls-2"
     points="1306.91 880.43 1386.91 908.87 1466.91 880.43"
     id="polyline117"
     style="fill:#ffffff;stroke:#212222;stroke-width:8px;stroke-miterlimit:10"
     transform="translate(-100.17725,-120.94)" />
  <line
     class="cls-2"
     x1="1286.7328"
     y1="788.01001"
     x2="1286.7328"
     y2="834.10999"
     id="line119"
     style="fill:#ffffff;stroke:#212222;stroke-width:8px;stroke-miterlimit:10" />
  <polygon
     class="cls-2"
     points="1466.91,880.83 1386.91,909.26 1306.91,880.83 1306.91,834.87 1306.91,834.87 1386.91,806.44 1466.91,834.87 "
     id="polygon121"
     style="fill:#ffffff;stroke:#212222;stroke-width:8px;stroke-miterlimit:10"
     transform="translate(-100.17725,-120.94)" />
  <polyline
     class="cls-2"
     points="1306.91 834.83 1386.91 863.27 1466.91 834.83"
     id="polyline123"
     style="fill:#ffffff;stroke:#212222;stroke-width:8px;stroke-miterlimit:10"
     transform="translate(-100.17725,-120.94)" />
  <line
     class="cls-2"
     x1="1286.7328"
     y1="742.40997"
     x2="1286.7328"
     y2="788.51001"
     id="line125"
     style="fill:#ffffff;stroke:#212222;stroke-width:8px;stroke-miterlimit:10" />
  <polygon
     class="cls-2"
     points="1466.91,835.75 1386.91,864.18 1306.91,835.75 1306.91,789.79 1306.91,789.79 1386.91,761.36 1466.91,789.79 "
     id="polygon127"
     style="fill:#ffffff;stroke:#212222;stroke-width:8px;stroke-miterlimit:10"
     transform="translate(-100.17725,-120.94)" />
  <polyline
     class="cls-2"
     points="1306.91 789.75 1386.91 818.2 1466.91 789.75"
     id="polyline129"
     style="fill:#ffffff;stroke:#212222;stroke-width:8px;stroke-miterlimit:10"
     transform="translate(-100.17725,-120.94)" />
  <path
     class="cls-2"
     d="m 1269.8928,657.39 c 0,3.08 7.54,5.57 16.8399,5.57 9.3,0 16.84,-2.49 16.84,-5.57 l 0,-14.22 c 0,-3.08 -7.54,-5.57 -16.84,-5.57 -9.2999,0 -16.8399,2.49 -16.8399,5.57 z"
     id="path131"
     inkscape:connector-curvature="0"
     style="fill:#ffffff;stroke:#212222;stroke-width:8px;stroke-miterlimit:10" />
  <path
     class="cls-2"
     d="m 1303.5828,643.17 c 0,3.08 -7.54,5.57 -16.84,5.57 -9.3,0 -16.84,-2.49 -16.84,-5.57"
     id="path133"
     inkscape:connector-curvature="0"
     style="fill:#ffffff;stroke:#212222;stroke-width:8px;stroke-miterlimit:10" />
  <path
     class="cls-2"
     d="m 1269.8928,679.93 c 0,3.08 7.54,5.57 16.8399,5.57 9.3,0 16.84,-2.49 16.84,-5.57 l 0,-14.22 c 0,-3.08 -7.54,-5.57 -16.84,-5.57 -9.2999,0 -16.8399,2.49 -16.8399,5.57 z"
     id="path135"
     inkscape:connector-curvature="0"
     style="fill:#ffffff;stroke:#212222;stroke-width:8px;stroke-miterlimit:10" />
  <path
     class="cls-2"
     d="m 1303.5828,665.71 c 0,3.08 -7.54,5.57 -16.84,5.57 -9.3,0 -16.84,-2.49 -16.84,-5.57"
     id="path137"
     inkscape:connector-curvature="0"
     style="fill:#ffffff;stroke:#212222;stroke-width:8px;stroke-miterlimit:10" />
  <path
     class="cls-2"
     d="m 1306.3928,668.66 c 0,3.08 7.54,5.57 16.8399,5.57 9.3,0 16.84,-2.49 16.84,-5.57 l 0,-14.22 c 0,-3.08 -7.54,-5.57 -16.84,-5.57 -9.2999,0 -16.8399,2.49 -16.8399,5.57 z"
     id="path139"
     inkscape:connector-curvature="0"
     style="fill:#ffffff;stroke:#212222;stroke-width:8px;stroke-miterlimit:10" />
  <path
     class="cls-2"
     d="m 1340.0728,654.44 c 0,3.08 -7.54,5.57 -16.84,5.57 -9.3,0 -16.84,-2.49 -16.84,-5.57"
     id="path141"
     inkscape:connector-curvature="0"
     style="fill:#ffffff;stroke:#212222;stroke-width:8px;stroke-miterlimit:10" />
  <path
     class="cls-2"
     d="m 1233.4028,668.66 c 0,3.08 7.54,5.57 16.8399,5.57 9.3,0 16.84,-2.49 16.84,-5.57 l 0,-14.22 c 0,-3.08 -7.54,-5.57 -16.84,-5.57 -9.2999,0 -16.8399,2.49 -16.8399,5.57 z"
     id="path143"
     inkscape:connector-curvature="0"
     style="fill:#ffffff;stroke:#212222;stroke-width:8px;stroke-miterlimit:10" />
  <path
     class="cls-2"
     d="m 1267.0828,654.44 c 0,3.08 -7.54,5.57 -16.84,5.57 -9.3,0 -16.84,-2.49 -16.84,-5.57"
     id="path145"
     inkscape:connector-curvature="0"
     style="fill:#ffffff;stroke:#212222;stroke-width:8px;stroke-miterlimit:10" />
  <line
     class="cls-2"
     x1="1286.7328"
     y1="697.33002"
     x2="1286.7328"
     y2="743.44"
     id="line147"
     style="fill:#ffffff;stroke:#212222;stroke-width:8px;stroke-miterlimit:10" />
  <line
     class="cls-16"
     x1="1021.7228"
     y1="94.509995"
     x2="1168.7627"
     y2="94.509995"
     id="line179"
     style="fill:none;stroke:#3880ff;stroke-width:8px;stroke-linecap:square;stroke-miterlimit:10" />
  <line
     class="cls-16"
     x1="865.46558"
     y1="736.90997"
     x2="1165.3264"
     y2="736.90997"
     id="line181"
     style="fill:none;stroke:#3880ff;stroke-width:8;stroke-linecap:square;stroke-miterlimit:10;stroke-dasharray:none" />
  <line
     class="cls-16"
     x1="1021.7228"
     y1="308.63998"
     x2="1168.7627"
     y2="308.63998"
     id="line183"
     style="fill:none;stroke:#3880ff;stroke-width:8px;stroke-linecap:square;stroke-miterlimit:10" />
  <line
     class="cls-16"
     x1="1021.7228"
     y1="522.77997"
     x2="1168.7627"
     y2="522.77997"
     id="line185"
     style="fill:none;stroke:#3880ff;stroke-width:8px;stroke-linecap:square;stroke-miterlimit:10" />
  <polygon
     class="cls-17"
     points="800.96,539.89 765.12,483.75 765.12,483.75 602.89,483.75 568.46,539.89 568.46,596.25 800.96,596.25 "
     id="polygon187"
     transform="translate(-558.28251,88.48004)"
     style="fill:#ffffff;stroke:#222222;stroke-width:8px;stroke-miterlimit:10" />
  <line
     class="cls-18"
     x1="10.177509"
     y1="628.48004"
     x2="240.79752"
     y2="628.48004"
     id="line189"
     style="fill:none;stroke:#222222;stroke-width:8px;stroke-miterlimit:10" />
  <polygon
     transform="translate(-564.46,-325.03703)"
     class="cls-17"
     points="800.96,596.25 800.96,539.89 765.12,483.75 765.12,483.75 602.89,483.75 568.46,539.89 568.46,596.25 "
     id="polygon187-3"
     style="fill:#ffffff;stroke:#222222;stroke-width:8px;stroke-miterlimit:10" />
  <line
     class="cls-18"
     x1="4.0000267"
     y1="214.96295"
     x2="234.62003"
     y2="214.96295"
     id="line189-0"
     style="fill:none;stroke:#222222;stroke-width:8px;stroke-miterlimit:10" />
  <polygon
     transform="translate(-564.46,-325.03703)"
     class="cls-17"
     points="800.96,596.25 800.96,539.89 765.12,483.75 765.12,483.75 602.89,483.75 568.46,539.89 568.46,596.25 "
     id="polygon187-8"
     style="fill:#ffffff;stroke:#222222;stroke-width:8px;stroke-miterlimit:10" />
  <line
     class="cls-18"
     x1="4.0000267"
     y1="214.96295"
     x2="234.62003"
     y2="214.96295"
     id="line189-3"
     style="fill:none;stroke:#222222;stroke-width:8px;stroke-miterlimit:10" />
  <polygon
     transform="translate(-559.20304,-123.25579)"
     class="cls-17"
     points="765.12,483.75 602.89,483.75 568.46,539.89 568.46,596.25 800.96,596.25 800.96,539.89 765.12,483.75 "
     id="polygon187-8-8"
     style="fill:#ffffff;stroke:#222222;stroke-width:8px;stroke-miterlimit:10" />
  <line
     class="cls-18"
     x1="9.2569923"
     y1="416.7442"
     x2="239.87695"
     y2="416.7442"
     id="line189-3-4"
     style="fill:none;stroke:#222222;stroke-width:8px;stroke-miterlimit:10" />
  <text
     xml:space="preserve"
     style="font-style:normal;font-weight:normal;font-size:40px;line-height:125%;font-family:sans-serif;letter-spacing:0px;word-spacing:0px;fill:#000000;fill-opacity:1;stroke:none;stroke-width:1px;stroke-linecap:butt;stroke-linejoin:miter;stroke-opacity:1"
     x="711.61224"
     y="428.53363"
     id="text4399"
     sodipodi:linespacing="125%"><tspan
       sodipodi:role="line"
       id="tspan4401"
       x="711.61224"
       y="428.53363">profile</tspan></text>
  <text
     xml:space="preserve"
     style="font-style:normal;font-weight:normal;font-size:40px;line-height:125%;font-family:sans-serif;letter-spacing:0px;word-spacing:0px;fill:#000000;fill-opacity:1;stroke:none;stroke-width:1px;stroke-linecap:butt;stroke-linejoin:miter;stroke-opacity:1"
     x="714.13843"
     y="749.37573"
     id="text4399-7"
     sodipodi:linespacing="125%"><tspan
       sodipodi:role="line"
       id="tspan4401-3"
       x="714.13843"
       y="749.37573">profile</tspan></text>
  <text
     xml:space="preserve"
     style="font-style:normal;font-weight:normal;font-size:40px;line-height:125%;font-family:sans-serif;letter-spacing:0px;word-spacing:0px;fill:#000000;fill-opacity:1;stroke:none;stroke-width:1px;stroke-linecap:butt;stroke-linejoin:miter;stroke-opacity:1"
     x="424.45428"
     y="427.69153"
     id="text4399-4"
     sodipodi:linespacing="125%"><tspan
       sodipodi:role="line"
       id="tspan4401-8"
       x="424.45428"
       y="427.69153">role</tspan></text>
  <line
     class="cls-1"
     x1="521.82355"
     y1="415.06"
     x2="690.87457"
     y2="415.06"
     id="line9-5"
     style="fill:none;stroke:#3880ff;stroke-width:8;stroke-miterlimit:10;stroke-dasharray:none" />
  <rect
     style="fill:none;stroke:#000000;stroke-width:8;stroke-miterlimit:10;stroke-dasharray:none"
     id="rect4403"
     width="166.73682"
     height="69.052658"
     x="693.08594"
     y="383.06" />
  <line
     class="cls-1"
     x1="598.87225"
     y1="416.87964"
     x2="598.87225"
     y2="735.91113"
     id="line11-1"
     style="fill:none;stroke:#3880ff;stroke-width:8;stroke-miterlimit:10;stroke-dasharray:none" />
  <line
     class="cls-16"
     x1="599.44928"
     y1="736.7442"
     x2="688.44287"
     y2="736.7442"
     id="line181-6"
     style="fill:none;stroke:#3880ff;stroke-width:8;stroke-linecap:square;stroke-miterlimit:10;stroke-dasharray:none" />
  <rect
     style="fill:none;stroke:#000000;stroke-width:8;stroke-miterlimit:10;stroke-dasharray:none"
     id="rect4403-4"
     width="166.73682"
     height="69.052658"
     x="693.92798"
     y="702.2179" />
  <line
     class="cls-1"
     x1="349.50699"
     y1="207.54425"
     x2="349.50699"
     y2="632.68103"
     id="line11-2"
     style="fill:none;stroke:#3880ff;stroke-width:8;stroke-miterlimit:10;stroke-dasharray:none" />
  <line
     class="cls-16"
     x1="262.806"
     y1="209.58633"
     x2="349.47116"
     y2="209.58633"
     id="line181-6-9"
     style="fill:none;stroke:#3880ff;stroke-width:8;stroke-linecap:square;stroke-miterlimit:10;stroke-dasharray:none" />
  <line
     class="cls-16"
     x1="261.5455"
     y1="628.95471"
     x2="348.20529"
     y2="628.95471"
     id="line181-6-9-4"
     style="fill:none;stroke:#3880ff;stroke-width:7.99975252;stroke-linecap:square;stroke-miterlimit:10;stroke-dasharray:none" />
  <line
     class="cls-16"
     x1="263.26785"
     y1="416.7442"
     x2="398.20016"
     y2="416.7442"
     id="line181-6-9-5"
     style="fill:none;stroke:#3880ff;stroke-width:8;stroke-linecap:square;stroke-miterlimit:10;stroke-dasharray:none" />
  <rect
     style="fill:none;stroke:#000000;stroke-width:8;stroke-miterlimit:10;stroke-dasharray:none"
     id="rect4403-1"
     width="114.15965"
     height="70.370224"
     x="405.26923"
     y="381.55908" />
</svg>
