<svg xmlns="http://www.w3.org/2000/svg" viewBox="0 0 128 124"><defs><style>.cls-1{fill:#fff;}.cls-2,.cls-3,.cls-4,.cls-5,.cls-6,.cls-7,.cls-8{fill:none;stroke:#222;stroke-linecap:square;stroke-miterlimit:10;stroke-width:4px;}.cls-3{stroke-dasharray:4.13 8.25;}.cls-4{stroke-dasharray:4.37 8.74;}.cls-5{stroke-dasharray:4.14 8.28;}.cls-6{stroke-dasharray:4.4 8.8;}.cls-7{stroke-dasharray:4.1 8.21;}.cls-8{stroke-dasharray:3.25 6.5;}</style></defs><title>servers_dotted</title><g id="Layer_2" data-name="Layer 2"><g id="Layer_1-2" data-name="Layer 1"><polygon class="cls-1" points="106.89 2 20.36 2 2 31.94 2 62 126 62 126 31.94 106.89 2"/><polyline class="cls-2" points="107.96 3.69 106.89 2 104.89 2"/><line class="cls-3" x1="96.63" y1="2" x2="26.49" y2="2"/><polyline class="cls-2" points="22.36 2 20.36 2 19.32 3.71"/><polyline class="cls-4" points="14.75 11.16 2 31.94 2 55.63"/><polyline class="cls-2" points="2 60 2 62 4 62"/><line class="cls-5" x1="12.28" y1="62" x2="119.86" y2="62"/><polyline class="cls-2" points="124 62 126 62 126 60"/><polyline class="cls-6" points="126 51.2 126 31.94 110.33 7.39"/><line class="cls-1" x1="2" y1="32" x2="125" y2="32"/><line class="cls-2" x1="2" y1="32" x2="4" y2="32"/><line class="cls-7" x1="12.21" y1="32" x2="118.9" y2="32"/><line class="cls-2" x1="123" y1="32" x2="125" y2="32"/><rect class="cls-1" x="2" y="62" width="124" height="30"/><polyline class="cls-2" points="2 64 2 62 4 62"/><line class="cls-5" x1="12.28" y1="62" x2="119.86" y2="62"/><polyline class="cls-2" points="124 62 126 62 126 64"/><line class="cls-8" x1="126" y1="70.5" x2="126" y2="86.75"/><polyline class="cls-2" points="126 90 126 92 124 92"/><line class="cls-5" x1="115.72" y1="92" x2="8.14" y2="92"/><polyline class="cls-2" points="4 92 2 92 2 90"/><line class="cls-8" x1="2" y1="83.5" x2="2" y2="67.25"/><rect class="cls-1" x="2" y="92" width="124" height="30"/><polyline class="cls-2" points="2 94 2 92 4 92"/><line class="cls-5" x1="12.28" y1="92" x2="119.86" y2="92"/><polyline class="cls-2" points="124 92 126 92 126 94"/><line class="cls-8" x1="126" y1="100.5" x2="126" y2="116.75"/><polyline class="cls-2" points="126 120 126 122 124 122"/><line class="cls-5" x1="115.72" y1="122" x2="8.14" y2="122"/><polyline class="cls-2" points="4 122 2 122 2 120"/><line class="cls-8" x1="2" y1="113.5" x2="2" y2="97.25"/></g></g></svg>