<svg xmlns="http://www.w3.org/2000/svg" viewBox="0 0 117.99 79.13"><defs><style>.cls-1{fill:#fff;stroke:#212222;stroke-width:4px;}.cls-1,.cls-3{stroke-miterlimit:10;}.cls-2{fill:#231f20;}.cls-3{fill:none;stroke:#222;stroke-width:12px;}</style></defs><title>skip_resource</title><g id="Layer_2" data-name="Layer 2"><g id="Layer_1-2" data-name="Layer 1"><polygon class="cls-1" points="2 24.19 59 4 115.99 24.19 115.99 56.82 59 77.01 2 56.82 2 24.19"/><polyline class="cls-1" points="2 24.16 59 44.35 115.99 24.16"/><path class="cls-1" d="M47,16c0,2.18,5.37,4,12,4s12-1.77,12-4V6c0-2.18-5.37-4-12-4S47,3.77,47,6Z"/><path class="cls-1" d="M71,6c0,2.18-5.37,4-12,4S47,8.14,47,6"/><path class="cls-1" d="M47,32.05c0,2.18,5.37,4,12,4s12-1.77,12-4V22c0-2.18-5.37-4-12-4s-12,1.77-12,4Z"/><path class="cls-1" d="M71,22c0,2.18-5.37,4-12,4s-12-1.77-12-4"/><path class="cls-1" d="M73,24.05c0,2.18,5.37,4,12,4s12-1.77,12-4V14c0-2.18-5.37-4-12-4s-12,1.77-12,4Z"/><path class="cls-1" d="M97,14c0,2.18-5.37,4-12,4s-12-1.77-12-4"/><path class="cls-1" d="M21,24.05c0,2.18,5.37,4,12,4s12-1.77,12-4V14c0-2.18-5.37-4-12-4s-12,1.77-12,4Z"/><path class="cls-1" d="M45,14c0,2.18-5.37,4-12,4s-12-1.77-12-4"/><line class="cls-1" x1="59" y1="44.41" x2="59" y2="77.14"/><polygon class="cls-2" points="72.58 38.91 37.2 68.73 35.68 10.98 72.58 38.91"/><line class="cls-3" x1="78.31" y1="10.41" x2="78.31" y2="66.3"/></g></g></svg>